<svg width="48" height="48" viewBox="0 0 48 48" fill="none" xmlns="http://www.w3.org/2000/svg">
<rect width="48" height="48" rx="20" fill="url(#paint0_linear_16_2129)"/>
<path d="M32.8426 18.3551L32.6 18.123L35.2262 15.5074C35.3607 15.3435 35.4295 15.1354 35.4191 14.9235C35.4087 14.7117 35.3199 14.5113 35.1699 14.3614C35.0199 14.2114 34.8195 14.1226 34.6077 14.1122C34.3959 14.1018 34.1878 14.1705 34.0238 14.3051L31.2922 17.0473C29.3059 15.6498 26.9358 14.9016 24.5072 14.9054C22.0786 14.9092 19.7108 15.6648 17.7289 17.0684L14.9762 14.3051C14.8122 14.1705 14.6041 14.1018 14.3923 14.1122C14.1805 14.1226 13.9801 14.2114 13.8301 14.3614C13.6802 14.5113 13.5913 14.7117 13.5809 14.9235C13.5705 15.1354 13.6393 15.3435 13.7738 15.5074L16.4211 18.1441C15.2406 19.2628 14.3006 20.6104 13.6587 22.1047C13.0167 23.5989 12.6863 25.2084 12.6875 26.8348V29.25C12.6875 29.6976 12.8653 30.1268 13.1818 30.4432C13.4982 30.7597 13.9275 30.9375 14.375 30.9375H34.625C35.0726 30.9375 35.5018 30.7597 35.8182 30.4432C36.1347 30.1268 36.3125 29.6976 36.3125 29.25V26.7187C36.3173 25.1643 36.0129 23.6244 35.4173 22.1885C34.8216 20.7527 33.9464 19.4496 32.8426 18.3551ZM20.7031 26.7187C20.4528 26.7187 20.2081 26.6445 20 26.5055C19.7919 26.3664 19.6296 26.1687 19.5338 25.9375C19.4381 25.7062 19.413 25.4517 19.4618 25.2062C19.5107 24.9607 19.6312 24.7352 19.8082 24.5582C19.9852 24.3812 20.2107 24.2607 20.4562 24.2118C20.7017 24.163 20.9562 24.188 21.1875 24.2838C21.4187 24.3796 21.6164 24.5418 21.7555 24.75C21.8945 24.9581 21.9688 25.2028 21.9688 25.4531C21.9688 25.7888 21.8354 26.1107 21.5981 26.3481C21.3607 26.5854 21.0388 26.7187 20.7031 26.7187ZM28.2969 26.7187C28.0466 26.7187 27.8019 26.6445 27.5937 26.5055C27.3856 26.3664 27.2234 26.1687 27.1276 25.9375C27.0318 25.7062 27.0067 25.4517 27.0556 25.2062C27.1044 24.9607 27.2249 24.7352 27.4019 24.5582C27.5789 24.3812 27.8045 24.2607 28.05 24.2118C28.2955 24.163 28.5499 24.188 28.7812 24.2838C29.0125 24.3796 29.2101 24.5418 29.3492 24.75C29.4883 24.9581 29.5625 25.2028 29.5625 25.4531C29.5625 25.7888 29.4292 26.1107 29.1918 26.3481C28.9545 26.5854 28.6325 26.7187 28.2969 26.7187Z" fill="white"/>
<defs>
<linearGradient id="paint0_linear_16_2129" x1="0" y1="0" x2="48" y2="48" gradientUnits="userSpaceOnUse">
<stop stop-color="#09C883"/>
<stop offset="1" stop-color="#54FABE"/>
</linearGradient>
</defs>
</svg>
