<svg width="61" height="62" viewBox="0 0 61 62" fill="none" xmlns="http://www.w3.org/2000/svg">
<g clip-path="url(#clip0_16_2424)">
<path d="M24.5263 28.6688C24.5263 28.6688 30.2719 28.2224 30.2719 21.2014C30.2719 14.1713 25.571 10.752 19.6129 10.752H0.0136719V50.005H19.6129C19.6129 50.005 31.5807 50.3967 31.5807 38.4168C31.5777 38.4137 32.1 28.6688 24.5263 28.6688ZM8.6502 17.7243H19.6129C19.6129 17.7243 22.2791 17.7243 22.2791 21.8057C22.2791 25.8932 20.7122 26.4854 18.9326 26.4854H8.6502V17.7243ZM19.0571 43.0266H8.6502V32.5346H19.6129C19.6129 32.5346 23.5849 32.4799 23.5849 37.9248C23.5849 42.5164 20.618 42.9931 19.0571 43.0266ZM47.5358 20.7338C33.0475 20.7338 33.0596 35.8173 33.0596 35.8173C33.0596 35.8173 32.0696 50.8219 47.5358 50.8219C47.5358 50.8219 60.4207 51.5932 60.4207 40.3846H53.7946C53.7946 40.3846 54.0132 44.6087 47.7575 44.6087C47.7575 44.6087 41.1252 45.0703 41.1252 37.776H60.6303C60.6333 37.773 62.7833 20.7338 47.5358 20.7338ZM53.4301 32.5346H41.0584C41.0584 32.5346 41.8662 26.4854 47.6846 26.4854C53.503 26.4854 53.4301 32.5346 53.4301 32.5346ZM54.9698 13.0568H39.4307V17.8974H54.9698V13.0568Z" fill="#2196F3"/>
</g>
<defs>
<clipPath id="clip0_16_2424">
<rect width="60.735" height="60.735" fill="white" transform="translate(0.0136719 0.424316)"/>
</clipPath>
</defs>
</svg>
