<svg width="113" height="112" viewBox="0 0 113 112" fill="none" xmlns="http://www.w3.org/2000/svg">
<path opacity="0.24" d="M1.544 3.12C1.192 3.12 0.888 2.992 0.632 2.736C0.392 2.48 0.272 2.168 0.272 1.8C0.272 1.416 0.392 1.104 0.632 0.864C0.888 0.624 1.192 0.504 1.544 0.504C1.896 0.504 2.192 0.624 2.432 0.864C2.688 1.104 2.816 1.416 2.816 1.8C2.816 2.168 2.688 2.48 2.432 2.736C2.192 2.992 1.896 3.12 1.544 3.12ZM15.3112 3.12C14.9592 3.12 14.6552 2.992 14.3992 2.736C14.1592 2.48 14.0392 2.168 14.0392 1.8C14.0392 1.416 14.1592 1.104 14.3992 0.864C14.6552 0.624 14.9592 0.504 15.3112 0.504C15.6632 0.504 15.9592 0.624 16.1992 0.864C16.4552 1.104 16.5832 1.416 16.5832 1.8C16.5832 2.168 16.4552 2.48 16.1992 2.736C15.9592 2.992 15.6632 3.12 15.3112 3.12ZM29.0784 3.12C28.7264 3.12 28.4224 2.992 28.1664 2.736C27.9264 2.48 27.8064 2.168 27.8064 1.8C27.8064 1.416 27.9264 1.104 28.1664 0.864C28.4224 0.624 28.7264 0.504 29.0784 0.504C29.4304 0.504 29.7264 0.624 29.9664 0.864C30.2224 1.104 30.3504 1.416 30.3504 1.8C30.3504 2.168 30.2224 2.48 29.9664 2.736C29.7264 2.992 29.4304 3.12 29.0784 3.12ZM42.8456 3.12C42.4936 3.12 42.1896 2.992 41.9336 2.736C41.6936 2.48 41.5736 2.168 41.5736 1.8C41.5736 1.416 41.6936 1.104 41.9336 0.864C42.1896 0.624 42.4936 0.504 42.8456 0.504C43.1976 0.504 43.4936 0.624 43.7336 0.864C43.9896 1.104 44.1176 1.416 44.1176 1.8C44.1176 2.168 43.9896 2.48 43.7336 2.736C43.4936 2.992 43.1976 3.12 42.8456 3.12ZM56.6127 3.12C56.2607 3.12 55.9567 2.992 55.7007 2.736C55.4607 2.48 55.3407 2.168 55.3407 1.8C55.3407 1.416 55.4607 1.104 55.7007 0.864C55.9567 0.624 56.2607 0.504 56.6127 0.504C56.9647 0.504 57.2607 0.624 57.5007 0.864C57.7567 1.104 57.8847 1.416 57.8847 1.8C57.8847 2.168 57.7567 2.48 57.5007 2.736C57.2607 2.992 56.9647 3.12 56.6127 3.12ZM70.3799 3.12C70.0279 3.12 69.7239 2.992 69.4679 2.736C69.2279 2.48 69.1079 2.168 69.1079 1.8C69.1079 1.416 69.2279 1.104 69.4679 0.864C69.7239 0.624 70.0279 0.504 70.3799 0.504C70.7319 0.504 71.0279 0.624 71.2679 0.864C71.5239 1.104 71.6519 1.416 71.6519 1.8C71.6519 2.168 71.5239 2.48 71.2679 2.736C71.0279 2.992 70.7319 3.12 70.3799 3.12ZM84.1471 3.12C83.7951 3.12 83.4911 2.992 83.2351 2.736C82.9951 2.48 82.8751 2.168 82.8751 1.8C82.8751 1.416 82.9951 1.104 83.2351 0.864C83.4911 0.624 83.7951 0.504 84.1471 0.504C84.4991 0.504 84.7951 0.624 85.0351 0.864C85.2911 1.104 85.4191 1.416 85.4191 1.8C85.4191 2.168 85.2911 2.48 85.0351 2.736C84.7951 2.992 84.4991 3.12 84.1471 3.12ZM97.9143 3.12C97.5623 3.12 97.2583 2.992 97.0023 2.736C96.7623 2.48 96.6423 2.168 96.6423 1.8C96.6423 1.416 96.7623 1.104 97.0023 0.864C97.2583 0.624 97.5623 0.504 97.9143 0.504C98.2663 0.504 98.5623 0.624 98.8023 0.864C99.0583 1.104 99.1863 1.416 99.1863 1.8C99.1863 2.168 99.0583 2.48 98.8023 2.736C98.5623 2.992 98.2663 3.12 97.9143 3.12ZM111.681 3.12C111.329 3.12 111.025 2.992 110.769 2.736C110.529 2.48 110.409 2.168 110.409 1.8C110.409 1.416 110.529 1.104 110.769 0.864C111.025 0.624 111.329 0.504 111.681 0.504C112.033 0.504 112.329 0.624 112.569 0.864C112.825 1.104 112.953 1.416 112.953 1.8C112.953 2.168 112.825 2.48 112.569 2.736C112.329 2.992 112.033 3.12 111.681 3.12ZM1.544 15.12C1.192 15.12 0.888 14.992 0.632 14.736C0.392 14.48 0.272 14.168 0.272 13.8C0.272 13.416 0.392 13.104 0.632 12.864C0.888 12.624 1.192 12.504 1.544 12.504C1.896 12.504 2.192 12.624 2.432 12.864C2.688 13.104 2.816 13.416 2.816 13.8C2.816 14.168 2.688 14.48 2.432 14.736C2.192 14.992 1.896 15.12 1.544 15.12ZM15.3112 15.12C14.9592 15.12 14.6552 14.992 14.3992 14.736C14.1592 14.48 14.0392 14.168 14.0392 13.8C14.0392 13.416 14.1592 13.104 14.3992 12.864C14.6552 12.624 14.9592 12.504 15.3112 12.504C15.6632 12.504 15.9592 12.624 16.1992 12.864C16.4552 13.104 16.5832 13.416 16.5832 13.8C16.5832 14.168 16.4552 14.48 16.1992 14.736C15.9592 14.992 15.6632 15.12 15.3112 15.12ZM29.0784 15.12C28.7264 15.12 28.4224 14.992 28.1664 14.736C27.9264 14.48 27.8064 14.168 27.8064 13.8C27.8064 13.416 27.9264 13.104 28.1664 12.864C28.4224 12.624 28.7264 12.504 29.0784 12.504C29.4304 12.504 29.7264 12.624 29.9664 12.864C30.2224 13.104 30.3504 13.416 30.3504 13.8C30.3504 14.168 30.2224 14.48 29.9664 14.736C29.7264 14.992 29.4304 15.12 29.0784 15.12ZM42.8456 15.12C42.4936 15.12 42.1896 14.992 41.9336 14.736C41.6936 14.48 41.5736 14.168 41.5736 13.8C41.5736 13.416 41.6936 13.104 41.9336 12.864C42.1896 12.624 42.4936 12.504 42.8456 12.504C43.1976 12.504 43.4936 12.624 43.7336 12.864C43.9896 13.104 44.1176 13.416 44.1176 13.8C44.1176 14.168 43.9896 14.48 43.7336 14.736C43.4936 14.992 43.1976 15.12 42.8456 15.12ZM56.6127 15.12C56.2607 15.12 55.9567 14.992 55.7007 14.736C55.4607 14.48 55.3407 14.168 55.3407 13.8C55.3407 13.416 55.4607 13.104 55.7007 12.864C55.9567 12.624 56.2607 12.504 56.6127 12.504C56.9647 12.504 57.2607 12.624 57.5007 12.864C57.7567 13.104 57.8847 13.416 57.8847 13.8C57.8847 14.168 57.7567 14.48 57.5007 14.736C57.2607 14.992 56.9647 15.12 56.6127 15.12ZM70.3799 15.12C70.0279 15.12 69.7239 14.992 69.4679 14.736C69.2279 14.48 69.1079 14.168 69.1079 13.8C69.1079 13.416 69.2279 13.104 69.4679 12.864C69.7239 12.624 70.0279 12.504 70.3799 12.504C70.7319 12.504 71.0279 12.624 71.2679 12.864C71.5239 13.104 71.6519 13.416 71.6519 13.8C71.6519 14.168 71.5239 14.48 71.2679 14.736C71.0279 14.992 70.7319 15.12 70.3799 15.12ZM84.1471 15.12C83.7951 15.12 83.4911 14.992 83.2351 14.736C82.9951 14.48 82.8751 14.168 82.8751 13.8C82.8751 13.416 82.9951 13.104 83.2351 12.864C83.4911 12.624 83.7951 12.504 84.1471 12.504C84.4991 12.504 84.7951 12.624 85.0351 12.864C85.2911 13.104 85.4191 13.416 85.4191 13.8C85.4191 14.168 85.2911 14.48 85.0351 14.736C84.7951 14.992 84.4991 15.12 84.1471 15.12ZM97.9143 15.12C97.5623 15.12 97.2583 14.992 97.0023 14.736C96.7623 14.48 96.6423 14.168 96.6423 13.8C96.6423 13.416 96.7623 13.104 97.0023 12.864C97.2583 12.624 97.5623 12.504 97.9143 12.504C98.2663 12.504 98.5623 12.624 98.8023 12.864C99.0583 13.104 99.1863 13.416 99.1863 13.8C99.1863 14.168 99.0583 14.48 98.8023 14.736C98.5623 14.992 98.2663 15.12 97.9143 15.12ZM111.681 15.12C111.329 15.12 111.025 14.992 110.769 14.736C110.529 14.48 110.409 14.168 110.409 13.8C110.409 13.416 110.529 13.104 110.769 12.864C111.025 12.624 111.329 12.504 111.681 12.504C112.033 12.504 112.329 12.624 112.569 12.864C112.825 13.104 112.953 13.416 112.953 13.8C112.953 14.168 112.825 14.48 112.569 14.736C112.329 14.992 112.033 15.12 111.681 15.12ZM1.544 27.12C1.192 27.12 0.888 26.992 0.632 26.736C0.392 26.48 0.272 26.168 0.272 25.8C0.272 25.416 0.392 25.104 0.632 24.864C0.888 24.624 1.192 24.504 1.544 24.504C1.896 24.504 2.192 24.624 2.432 24.864C2.688 25.104 2.816 25.416 2.816 25.8C2.816 26.168 2.688 26.48 2.432 26.736C2.192 26.992 1.896 27.12 1.544 27.12ZM15.3112 27.12C14.9592 27.12 14.6552 26.992 14.3992 26.736C14.1592 26.48 14.0392 26.168 14.0392 25.8C14.0392 25.416 14.1592 25.104 14.3992 24.864C14.6552 24.624 14.9592 24.504 15.3112 24.504C15.6632 24.504 15.9592 24.624 16.1992 24.864C16.4552 25.104 16.5832 25.416 16.5832 25.8C16.5832 26.168 16.4552 26.48 16.1992 26.736C15.9592 26.992 15.6632 27.12 15.3112 27.12ZM29.0784 27.12C28.7264 27.12 28.4224 26.992 28.1664 26.736C27.9264 26.48 27.8064 26.168 27.8064 25.8C27.8064 25.416 27.9264 25.104 28.1664 24.864C28.4224 24.624 28.7264 24.504 29.0784 24.504C29.4304 24.504 29.7264 24.624 29.9664 24.864C30.2224 25.104 30.3504 25.416 30.3504 25.8C30.3504 26.168 30.2224 26.48 29.9664 26.736C29.7264 26.992 29.4304 27.12 29.0784 27.12ZM42.8456 27.12C42.4936 27.12 42.1896 26.992 41.9336 26.736C41.6936 26.48 41.5736 26.168 41.5736 25.8C41.5736 25.416 41.6936 25.104 41.9336 24.864C42.1896 24.624 42.4936 24.504 42.8456 24.504C43.1976 24.504 43.4936 24.624 43.7336 24.864C43.9896 25.104 44.1176 25.416 44.1176 25.8C44.1176 26.168 43.9896 26.48 43.7336 26.736C43.4936 26.992 43.1976 27.12 42.8456 27.12ZM56.6127 27.12C56.2607 27.12 55.9567 26.992 55.7007 26.736C55.4607 26.48 55.3407 26.168 55.3407 25.8C55.3407 25.416 55.4607 25.104 55.7007 24.864C55.9567 24.624 56.2607 24.504 56.6127 24.504C56.9647 24.504 57.2607 24.624 57.5007 24.864C57.7567 25.104 57.8847 25.416 57.8847 25.8C57.8847 26.168 57.7567 26.48 57.5007 26.736C57.2607 26.992 56.9647 27.12 56.6127 27.12ZM70.3799 27.12C70.0279 27.12 69.7239 26.992 69.4679 26.736C69.2279 26.48 69.1079 26.168 69.1079 25.8C69.1079 25.416 69.2279 25.104 69.4679 24.864C69.7239 24.624 70.0279 24.504 70.3799 24.504C70.7319 24.504 71.0279 24.624 71.2679 24.864C71.5239 25.104 71.6519 25.416 71.6519 25.8C71.6519 26.168 71.5239 26.48 71.2679 26.736C71.0279 26.992 70.7319 27.12 70.3799 27.12ZM84.1471 27.12C83.7951 27.12 83.4911 26.992 83.2351 26.736C82.9951 26.48 82.8751 26.168 82.8751 25.8C82.8751 25.416 82.9951 25.104 83.2351 24.864C83.4911 24.624 83.7951 24.504 84.1471 24.504C84.4991 24.504 84.7951 24.624 85.0351 24.864C85.2911 25.104 85.4191 25.416 85.4191 25.8C85.4191 26.168 85.2911 26.48 85.0351 26.736C84.7951 26.992 84.4991 27.12 84.1471 27.12ZM97.9143 27.12C97.5623 27.12 97.2583 26.992 97.0023 26.736C96.7623 26.48 96.6423 26.168 96.6423 25.8C96.6423 25.416 96.7623 25.104 97.0023 24.864C97.2583 24.624 97.5623 24.504 97.9143 24.504C98.2663 24.504 98.5623 24.624 98.8023 24.864C99.0583 25.104 99.1863 25.416 99.1863 25.8C99.1863 26.168 99.0583 26.48 98.8023 26.736C98.5623 26.992 98.2663 27.12 97.9143 27.12ZM111.681 27.12C111.329 27.12 111.025 26.992 110.769 26.736C110.529 26.48 110.409 26.168 110.409 25.8C110.409 25.416 110.529 25.104 110.769 24.864C111.025 24.624 111.329 24.504 111.681 24.504C112.033 24.504 112.329 24.624 112.569 24.864C112.825 25.104 112.953 25.416 112.953 25.8C112.953 26.168 112.825 26.48 112.569 26.736C112.329 26.992 112.033 27.12 111.681 27.12ZM1.544 39.12C1.192 39.12 0.888 38.992 0.632 38.736C0.392 38.48 0.272 38.168 0.272 37.8C0.272 37.416 0.392 37.104 0.632 36.864C0.888 36.624 1.192 36.504 1.544 36.504C1.896 36.504 2.192 36.624 2.432 36.864C2.688 37.104 2.816 37.416 2.816 37.8C2.816 38.168 2.688 38.48 2.432 38.736C2.192 38.992 1.896 39.12 1.544 39.12ZM15.3112 39.12C14.9592 39.12 14.6552 38.992 14.3992 38.736C14.1592 38.48 14.0392 38.168 14.0392 37.8C14.0392 37.416 14.1592 37.104 14.3992 36.864C14.6552 36.624 14.9592 36.504 15.3112 36.504C15.6632 36.504 15.9592 36.624 16.1992 36.864C16.4552 37.104 16.5832 37.416 16.5832 37.8C16.5832 38.168 16.4552 38.48 16.1992 38.736C15.9592 38.992 15.6632 39.12 15.3112 39.12ZM29.0784 39.12C28.7264 39.12 28.4224 38.992 28.1664 38.736C27.9264 38.48 27.8064 38.168 27.8064 37.8C27.8064 37.416 27.9264 37.104 28.1664 36.864C28.4224 36.624 28.7264 36.504 29.0784 36.504C29.4304 36.504 29.7264 36.624 29.9664 36.864C30.2224 37.104 30.3504 37.416 30.3504 37.8C30.3504 38.168 30.2224 38.48 29.9664 38.736C29.7264 38.992 29.4304 39.12 29.0784 39.12ZM42.8456 39.12C42.4936 39.12 42.1896 38.992 41.9336 38.736C41.6936 38.48 41.5736 38.168 41.5736 37.8C41.5736 37.416 41.6936 37.104 41.9336 36.864C42.1896 36.624 42.4936 36.504 42.8456 36.504C43.1976 36.504 43.4936 36.624 43.7336 36.864C43.9896 37.104 44.1176 37.416 44.1176 37.8C44.1176 38.168 43.9896 38.48 43.7336 38.736C43.4936 38.992 43.1976 39.12 42.8456 39.12ZM56.6127 39.12C56.2607 39.12 55.9567 38.992 55.7007 38.736C55.4607 38.48 55.3407 38.168 55.3407 37.8C55.3407 37.416 55.4607 37.104 55.7007 36.864C55.9567 36.624 56.2607 36.504 56.6127 36.504C56.9647 36.504 57.2607 36.624 57.5007 36.864C57.7567 37.104 57.8847 37.416 57.8847 37.8C57.8847 38.168 57.7567 38.48 57.5007 38.736C57.2607 38.992 56.9647 39.12 56.6127 39.12ZM70.3799 39.12C70.0279 39.12 69.7239 38.992 69.4679 38.736C69.2279 38.48 69.1079 38.168 69.1079 37.8C69.1079 37.416 69.2279 37.104 69.4679 36.864C69.7239 36.624 70.0279 36.504 70.3799 36.504C70.7319 36.504 71.0279 36.624 71.2679 36.864C71.5239 37.104 71.6519 37.416 71.6519 37.8C71.6519 38.168 71.5239 38.48 71.2679 38.736C71.0279 38.992 70.7319 39.12 70.3799 39.12ZM84.1471 39.12C83.7951 39.12 83.4911 38.992 83.2351 38.736C82.9951 38.48 82.8751 38.168 82.8751 37.8C82.8751 37.416 82.9951 37.104 83.2351 36.864C83.4911 36.624 83.7951 36.504 84.1471 36.504C84.4991 36.504 84.7951 36.624 85.0351 36.864C85.2911 37.104 85.4191 37.416 85.4191 37.8C85.4191 38.168 85.2911 38.48 85.0351 38.736C84.7951 38.992 84.4991 39.12 84.1471 39.12ZM97.9143 39.12C97.5623 39.12 97.2583 38.992 97.0023 38.736C96.7623 38.48 96.6423 38.168 96.6423 37.8C96.6423 37.416 96.7623 37.104 97.0023 36.864C97.2583 36.624 97.5623 36.504 97.9143 36.504C98.2663 36.504 98.5623 36.624 98.8023 36.864C99.0583 37.104 99.1863 37.416 99.1863 37.8C99.1863 38.168 99.0583 38.48 98.8023 38.736C98.5623 38.992 98.2663 39.12 97.9143 39.12ZM111.681 39.12C111.329 39.12 111.025 38.992 110.769 38.736C110.529 38.48 110.409 38.168 110.409 37.8C110.409 37.416 110.529 37.104 110.769 36.864C111.025 36.624 111.329 36.504 111.681 36.504C112.033 36.504 112.329 36.624 112.569 36.864C112.825 37.104 112.953 37.416 112.953 37.8C112.953 38.168 112.825 38.48 112.569 38.736C112.329 38.992 112.033 39.12 111.681 39.12ZM1.544 51.12C1.192 51.12 0.888 50.992 0.632 50.736C0.392 50.48 0.272 50.168 0.272 49.8C0.272 49.416 0.392 49.104 0.632 48.864C0.888 48.624 1.192 48.504 1.544 48.504C1.896 48.504 2.192 48.624 2.432 48.864C2.688 49.104 2.816 49.416 2.816 49.8C2.816 50.168 2.688 50.48 2.432 50.736C2.192 50.992 1.896 51.12 1.544 51.12ZM15.3112 51.12C14.9592 51.12 14.6552 50.992 14.3992 50.736C14.1592 50.48 14.0392 50.168 14.0392 49.8C14.0392 49.416 14.1592 49.104 14.3992 48.864C14.6552 48.624 14.9592 48.504 15.3112 48.504C15.6632 48.504 15.9592 48.624 16.1992 48.864C16.4552 49.104 16.5832 49.416 16.5832 49.8C16.5832 50.168 16.4552 50.48 16.1992 50.736C15.9592 50.992 15.6632 51.12 15.3112 51.12ZM29.0784 51.12C28.7264 51.12 28.4224 50.992 28.1664 50.736C27.9264 50.48 27.8064 50.168 27.8064 49.8C27.8064 49.416 27.9264 49.104 28.1664 48.864C28.4224 48.624 28.7264 48.504 29.0784 48.504C29.4304 48.504 29.7264 48.624 29.9664 48.864C30.2224 49.104 30.3504 49.416 30.3504 49.8C30.3504 50.168 30.2224 50.48 29.9664 50.736C29.7264 50.992 29.4304 51.12 29.0784 51.12ZM42.8456 51.12C42.4936 51.12 42.1896 50.992 41.9336 50.736C41.6936 50.48 41.5736 50.168 41.5736 49.8C41.5736 49.416 41.6936 49.104 41.9336 48.864C42.1896 48.624 42.4936 48.504 42.8456 48.504C43.1976 48.504 43.4936 48.624 43.7336 48.864C43.9896 49.104 44.1176 49.416 44.1176 49.8C44.1176 50.168 43.9896 50.48 43.7336 50.736C43.4936 50.992 43.1976 51.12 42.8456 51.12ZM56.6127 51.12C56.2607 51.12 55.9567 50.992 55.7007 50.736C55.4607 50.48 55.3407 50.168 55.3407 49.8C55.3407 49.416 55.4607 49.104 55.7007 48.864C55.9567 48.624 56.2607 48.504 56.6127 48.504C56.9647 48.504 57.2607 48.624 57.5007 48.864C57.7567 49.104 57.8847 49.416 57.8847 49.8C57.8847 50.168 57.7567 50.48 57.5007 50.736C57.2607 50.992 56.9647 51.12 56.6127 51.12ZM70.3799 51.12C70.0279 51.12 69.7239 50.992 69.4679 50.736C69.2279 50.48 69.1079 50.168 69.1079 49.8C69.1079 49.416 69.2279 49.104 69.4679 48.864C69.7239 48.624 70.0279 48.504 70.3799 48.504C70.7319 48.504 71.0279 48.624 71.2679 48.864C71.5239 49.104 71.6519 49.416 71.6519 49.8C71.6519 50.168 71.5239 50.48 71.2679 50.736C71.0279 50.992 70.7319 51.12 70.3799 51.12ZM84.1471 51.12C83.7951 51.12 83.4911 50.992 83.2351 50.736C82.9951 50.48 82.8751 50.168 82.8751 49.8C82.8751 49.416 82.9951 49.104 83.2351 48.864C83.4911 48.624 83.7951 48.504 84.1471 48.504C84.4991 48.504 84.7951 48.624 85.0351 48.864C85.2911 49.104 85.4191 49.416 85.4191 49.8C85.4191 50.168 85.2911 50.48 85.0351 50.736C84.7951 50.992 84.4991 51.12 84.1471 51.12ZM97.9143 51.12C97.5623 51.12 97.2583 50.992 97.0023 50.736C96.7623 50.48 96.6423 50.168 96.6423 49.8C96.6423 49.416 96.7623 49.104 97.0023 48.864C97.2583 48.624 97.5623 48.504 97.9143 48.504C98.2663 48.504 98.5623 48.624 98.8023 48.864C99.0583 49.104 99.1863 49.416 99.1863 49.8C99.1863 50.168 99.0583 50.48 98.8023 50.736C98.5623 50.992 98.2663 51.12 97.9143 51.12ZM111.681 51.12C111.329 51.12 111.025 50.992 110.769 50.736C110.529 50.48 110.409 50.168 110.409 49.8C110.409 49.416 110.529 49.104 110.769 48.864C111.025 48.624 111.329 48.504 111.681 48.504C112.033 48.504 112.329 48.624 112.569 48.864C112.825 49.104 112.953 49.416 112.953 49.8C112.953 50.168 112.825 50.48 112.569 50.736C112.329 50.992 112.033 51.12 111.681 51.12ZM1.544 63.12C1.192 63.12 0.888 62.992 0.632 62.736C0.392 62.48 0.272 62.168 0.272 61.8C0.272 61.416 0.392 61.104 0.632 60.864C0.888 60.624 1.192 60.504 1.544 60.504C1.896 60.504 2.192 60.624 2.432 60.864C2.688 61.104 2.816 61.416 2.816 61.8C2.816 62.168 2.688 62.48 2.432 62.736C2.192 62.992 1.896 63.12 1.544 63.12ZM15.3112 63.12C14.9592 63.12 14.6552 62.992 14.3992 62.736C14.1592 62.48 14.0392 62.168 14.0392 61.8C14.0392 61.416 14.1592 61.104 14.3992 60.864C14.6552 60.624 14.9592 60.504 15.3112 60.504C15.6632 60.504 15.9592 60.624 16.1992 60.864C16.4552 61.104 16.5832 61.416 16.5832 61.8C16.5832 62.168 16.4552 62.48 16.1992 62.736C15.9592 62.992 15.6632 63.12 15.3112 63.12ZM29.0784 63.12C28.7264 63.12 28.4224 62.992 28.1664 62.736C27.9264 62.48 27.8064 62.168 27.8064 61.8C27.8064 61.416 27.9264 61.104 28.1664 60.864C28.4224 60.624 28.7264 60.504 29.0784 60.504C29.4304 60.504 29.7264 60.624 29.9664 60.864C30.2224 61.104 30.3504 61.416 30.3504 61.8C30.3504 62.168 30.2224 62.48 29.9664 62.736C29.7264 62.992 29.4304 63.12 29.0784 63.12ZM42.8456 63.12C42.4936 63.12 42.1896 62.992 41.9336 62.736C41.6936 62.48 41.5736 62.168 41.5736 61.8C41.5736 61.416 41.6936 61.104 41.9336 60.864C42.1896 60.624 42.4936 60.504 42.8456 60.504C43.1976 60.504 43.4936 60.624 43.7336 60.864C43.9896 61.104 44.1176 61.416 44.1176 61.8C44.1176 62.168 43.9896 62.48 43.7336 62.736C43.4936 62.992 43.1976 63.12 42.8456 63.12ZM56.6127 63.12C56.2607 63.12 55.9567 62.992 55.7007 62.736C55.4607 62.48 55.3407 62.168 55.3407 61.8C55.3407 61.416 55.4607 61.104 55.7007 60.864C55.9567 60.624 56.2607 60.504 56.6127 60.504C56.9647 60.504 57.2607 60.624 57.5007 60.864C57.7567 61.104 57.8847 61.416 57.8847 61.8C57.8847 62.168 57.7567 62.48 57.5007 62.736C57.2607 62.992 56.9647 63.12 56.6127 63.12ZM70.3799 63.12C70.0279 63.12 69.7239 62.992 69.4679 62.736C69.2279 62.48 69.1079 62.168 69.1079 61.8C69.1079 61.416 69.2279 61.104 69.4679 60.864C69.7239 60.624 70.0279 60.504 70.3799 60.504C70.7319 60.504 71.0279 60.624 71.2679 60.864C71.5239 61.104 71.6519 61.416 71.6519 61.8C71.6519 62.168 71.5239 62.48 71.2679 62.736C71.0279 62.992 70.7319 63.12 70.3799 63.12ZM84.1471 63.12C83.7951 63.12 83.4911 62.992 83.2351 62.736C82.9951 62.48 82.8751 62.168 82.8751 61.8C82.8751 61.416 82.9951 61.104 83.2351 60.864C83.4911 60.624 83.7951 60.504 84.1471 60.504C84.4991 60.504 84.7951 60.624 85.0351 60.864C85.2911 61.104 85.4191 61.416 85.4191 61.8C85.4191 62.168 85.2911 62.48 85.0351 62.736C84.7951 62.992 84.4991 63.12 84.1471 63.12ZM97.9143 63.12C97.5623 63.12 97.2583 62.992 97.0023 62.736C96.7623 62.48 96.6423 62.168 96.6423 61.8C96.6423 61.416 96.7623 61.104 97.0023 60.864C97.2583 60.624 97.5623 60.504 97.9143 60.504C98.2663 60.504 98.5623 60.624 98.8023 60.864C99.0583 61.104 99.1863 61.416 99.1863 61.8C99.1863 62.168 99.0583 62.48 98.8023 62.736C98.5623 62.992 98.2663 63.12 97.9143 63.12ZM111.681 63.12C111.329 63.12 111.025 62.992 110.769 62.736C110.529 62.48 110.409 62.168 110.409 61.8C110.409 61.416 110.529 61.104 110.769 60.864C111.025 60.624 111.329 60.504 111.681 60.504C112.033 60.504 112.329 60.624 112.569 60.864C112.825 61.104 112.953 61.416 112.953 61.8C112.953 62.168 112.825 62.48 112.569 62.736C112.329 62.992 112.033 63.12 111.681 63.12ZM1.544 75.12C1.192 75.12 0.888 74.992 0.632 74.736C0.392 74.48 0.272 74.168 0.272 73.8C0.272 73.416 0.392 73.104 0.632 72.864C0.888 72.624 1.192 72.504 1.544 72.504C1.896 72.504 2.192 72.624 2.432 72.864C2.688 73.104 2.816 73.416 2.816 73.8C2.816 74.168 2.688 74.48 2.432 74.736C2.192 74.992 1.896 75.12 1.544 75.12ZM15.3112 75.12C14.9592 75.12 14.6552 74.992 14.3992 74.736C14.1592 74.48 14.0392 74.168 14.0392 73.8C14.0392 73.416 14.1592 73.104 14.3992 72.864C14.6552 72.624 14.9592 72.504 15.3112 72.504C15.6632 72.504 15.9592 72.624 16.1992 72.864C16.4552 73.104 16.5832 73.416 16.5832 73.8C16.5832 74.168 16.4552 74.48 16.1992 74.736C15.9592 74.992 15.6632 75.12 15.3112 75.12ZM29.0784 75.12C28.7264 75.12 28.4224 74.992 28.1664 74.736C27.9264 74.48 27.8064 74.168 27.8064 73.8C27.8064 73.416 27.9264 73.104 28.1664 72.864C28.4224 72.624 28.7264 72.504 29.0784 72.504C29.4304 72.504 29.7264 72.624 29.9664 72.864C30.2224 73.104 30.3504 73.416 30.3504 73.8C30.3504 74.168 30.2224 74.48 29.9664 74.736C29.7264 74.992 29.4304 75.12 29.0784 75.12ZM42.8456 75.12C42.4936 75.12 42.1896 74.992 41.9336 74.736C41.6936 74.48 41.5736 74.168 41.5736 73.8C41.5736 73.416 41.6936 73.104 41.9336 72.864C42.1896 72.624 42.4936 72.504 42.8456 72.504C43.1976 72.504 43.4936 72.624 43.7336 72.864C43.9896 73.104 44.1176 73.416 44.1176 73.8C44.1176 74.168 43.9896 74.48 43.7336 74.736C43.4936 74.992 43.1976 75.12 42.8456 75.12ZM56.6127 75.12C56.2607 75.12 55.9567 74.992 55.7007 74.736C55.4607 74.48 55.3407 74.168 55.3407 73.8C55.3407 73.416 55.4607 73.104 55.7007 72.864C55.9567 72.624 56.2607 72.504 56.6127 72.504C56.9647 72.504 57.2607 72.624 57.5007 72.864C57.7567 73.104 57.8847 73.416 57.8847 73.8C57.8847 74.168 57.7567 74.48 57.5007 74.736C57.2607 74.992 56.9647 75.12 56.6127 75.12ZM70.3799 75.12C70.0279 75.12 69.7239 74.992 69.4679 74.736C69.2279 74.48 69.1079 74.168 69.1079 73.8C69.1079 73.416 69.2279 73.104 69.4679 72.864C69.7239 72.624 70.0279 72.504 70.3799 72.504C70.7319 72.504 71.0279 72.624 71.2679 72.864C71.5239 73.104 71.6519 73.416 71.6519 73.8C71.6519 74.168 71.5239 74.48 71.2679 74.736C71.0279 74.992 70.7319 75.12 70.3799 75.12ZM84.1471 75.12C83.7951 75.12 83.4911 74.992 83.2351 74.736C82.9951 74.48 82.8751 74.168 82.8751 73.8C82.8751 73.416 82.9951 73.104 83.2351 72.864C83.4911 72.624 83.7951 72.504 84.1471 72.504C84.4991 72.504 84.7951 72.624 85.0351 72.864C85.2911 73.104 85.4191 73.416 85.4191 73.8C85.4191 74.168 85.2911 74.48 85.0351 74.736C84.7951 74.992 84.4991 75.12 84.1471 75.12ZM97.9143 75.12C97.5623 75.12 97.2583 74.992 97.0023 74.736C96.7623 74.48 96.6423 74.168 96.6423 73.8C96.6423 73.416 96.7623 73.104 97.0023 72.864C97.2583 72.624 97.5623 72.504 97.9143 72.504C98.2663 72.504 98.5623 72.624 98.8023 72.864C99.0583 73.104 99.1863 73.416 99.1863 73.8C99.1863 74.168 99.0583 74.48 98.8023 74.736C98.5623 74.992 98.2663 75.12 97.9143 75.12ZM111.681 75.12C111.329 75.12 111.025 74.992 110.769 74.736C110.529 74.48 110.409 74.168 110.409 73.8C110.409 73.416 110.529 73.104 110.769 72.864C111.025 72.624 111.329 72.504 111.681 72.504C112.033 72.504 112.329 72.624 112.569 72.864C112.825 73.104 112.953 73.416 112.953 73.8C112.953 74.168 112.825 74.48 112.569 74.736C112.329 74.992 112.033 75.12 111.681 75.12ZM1.544 87.12C1.192 87.12 0.888 86.992 0.632 86.736C0.392 86.48 0.272 86.168 0.272 85.8C0.272 85.416 0.392 85.104 0.632 84.864C0.888 84.624 1.192 84.504 1.544 84.504C1.896 84.504 2.192 84.624 2.432 84.864C2.688 85.104 2.816 85.416 2.816 85.8C2.816 86.168 2.688 86.48 2.432 86.736C2.192 86.992 1.896 87.12 1.544 87.12ZM15.3112 87.12C14.9592 87.12 14.6552 86.992 14.3992 86.736C14.1592 86.48 14.0392 86.168 14.0392 85.8C14.0392 85.416 14.1592 85.104 14.3992 84.864C14.6552 84.624 14.9592 84.504 15.3112 84.504C15.6632 84.504 15.9592 84.624 16.1992 84.864C16.4552 85.104 16.5832 85.416 16.5832 85.8C16.5832 86.168 16.4552 86.48 16.1992 86.736C15.9592 86.992 15.6632 87.12 15.3112 87.12ZM29.0784 87.12C28.7264 87.12 28.4224 86.992 28.1664 86.736C27.9264 86.48 27.8064 86.168 27.8064 85.8C27.8064 85.416 27.9264 85.104 28.1664 84.864C28.4224 84.624 28.7264 84.504 29.0784 84.504C29.4304 84.504 29.7264 84.624 29.9664 84.864C30.2224 85.104 30.3504 85.416 30.3504 85.8C30.3504 86.168 30.2224 86.48 29.9664 86.736C29.7264 86.992 29.4304 87.12 29.0784 87.12ZM42.8456 87.12C42.4936 87.12 42.1896 86.992 41.9336 86.736C41.6936 86.48 41.5736 86.168 41.5736 85.8C41.5736 85.416 41.6936 85.104 41.9336 84.864C42.1896 84.624 42.4936 84.504 42.8456 84.504C43.1976 84.504 43.4936 84.624 43.7336 84.864C43.9896 85.104 44.1176 85.416 44.1176 85.8C44.1176 86.168 43.9896 86.48 43.7336 86.736C43.4936 86.992 43.1976 87.12 42.8456 87.12ZM56.6127 87.12C56.2607 87.12 55.9567 86.992 55.7007 86.736C55.4607 86.48 55.3407 86.168 55.3407 85.8C55.3407 85.416 55.4607 85.104 55.7007 84.864C55.9567 84.624 56.2607 84.504 56.6127 84.504C56.9647 84.504 57.2607 84.624 57.5007 84.864C57.7567 85.104 57.8847 85.416 57.8847 85.8C57.8847 86.168 57.7567 86.48 57.5007 86.736C57.2607 86.992 56.9647 87.12 56.6127 87.12ZM70.3799 87.12C70.0279 87.12 69.7239 86.992 69.4679 86.736C69.2279 86.48 69.1079 86.168 69.1079 85.8C69.1079 85.416 69.2279 85.104 69.4679 84.864C69.7239 84.624 70.0279 84.504 70.3799 84.504C70.7319 84.504 71.0279 84.624 71.2679 84.864C71.5239 85.104 71.6519 85.416 71.6519 85.8C71.6519 86.168 71.5239 86.48 71.2679 86.736C71.0279 86.992 70.7319 87.12 70.3799 87.12ZM84.1471 87.12C83.7951 87.12 83.4911 86.992 83.2351 86.736C82.9951 86.48 82.8751 86.168 82.8751 85.8C82.8751 85.416 82.9951 85.104 83.2351 84.864C83.4911 84.624 83.7951 84.504 84.1471 84.504C84.4991 84.504 84.7951 84.624 85.0351 84.864C85.2911 85.104 85.4191 85.416 85.4191 85.8C85.4191 86.168 85.2911 86.48 85.0351 86.736C84.7951 86.992 84.4991 87.12 84.1471 87.12ZM97.9143 87.12C97.5623 87.12 97.2583 86.992 97.0023 86.736C96.7623 86.48 96.6423 86.168 96.6423 85.8C96.6423 85.416 96.7623 85.104 97.0023 84.864C97.2583 84.624 97.5623 84.504 97.9143 84.504C98.2663 84.504 98.5623 84.624 98.8023 84.864C99.0583 85.104 99.1863 85.416 99.1863 85.8C99.1863 86.168 99.0583 86.48 98.8023 86.736C98.5623 86.992 98.2663 87.12 97.9143 87.12ZM111.681 87.12C111.329 87.12 111.025 86.992 110.769 86.736C110.529 86.48 110.409 86.168 110.409 85.8C110.409 85.416 110.529 85.104 110.769 84.864C111.025 84.624 111.329 84.504 111.681 84.504C112.033 84.504 112.329 84.624 112.569 84.864C112.825 85.104 112.953 85.416 112.953 85.8C112.953 86.168 112.825 86.48 112.569 86.736C112.329 86.992 112.033 87.12 111.681 87.12ZM1.544 99.12C1.192 99.12 0.888 98.992 0.632 98.736C0.392 98.48 0.272 98.168 0.272 97.8C0.272 97.416 0.392 97.104 0.632 96.864C0.888 96.624 1.192 96.504 1.544 96.504C1.896 96.504 2.192 96.624 2.432 96.864C2.688 97.104 2.816 97.416 2.816 97.8C2.816 98.168 2.688 98.48 2.432 98.736C2.192 98.992 1.896 99.12 1.544 99.12ZM15.3112 99.12C14.9592 99.12 14.6552 98.992 14.3992 98.736C14.1592 98.48 14.0392 98.168 14.0392 97.8C14.0392 97.416 14.1592 97.104 14.3992 96.864C14.6552 96.624 14.9592 96.504 15.3112 96.504C15.6632 96.504 15.9592 96.624 16.1992 96.864C16.4552 97.104 16.5832 97.416 16.5832 97.8C16.5832 98.168 16.4552 98.48 16.1992 98.736C15.9592 98.992 15.6632 99.12 15.3112 99.12ZM29.0784 99.12C28.7264 99.12 28.4224 98.992 28.1664 98.736C27.9264 98.48 27.8064 98.168 27.8064 97.8C27.8064 97.416 27.9264 97.104 28.1664 96.864C28.4224 96.624 28.7264 96.504 29.0784 96.504C29.4304 96.504 29.7264 96.624 29.9664 96.864C30.2224 97.104 30.3504 97.416 30.3504 97.8C30.3504 98.168 30.2224 98.48 29.9664 98.736C29.7264 98.992 29.4304 99.12 29.0784 99.12ZM42.8456 99.12C42.4936 99.12 42.1896 98.992 41.9336 98.736C41.6936 98.48 41.5736 98.168 41.5736 97.8C41.5736 97.416 41.6936 97.104 41.9336 96.864C42.1896 96.624 42.4936 96.504 42.8456 96.504C43.1976 96.504 43.4936 96.624 43.7336 96.864C43.9896 97.104 44.1176 97.416 44.1176 97.8C44.1176 98.168 43.9896 98.48 43.7336 98.736C43.4936 98.992 43.1976 99.12 42.8456 99.12ZM56.6127 99.12C56.2607 99.12 55.9567 98.992 55.7007 98.736C55.4607 98.48 55.3407 98.168 55.3407 97.8C55.3407 97.416 55.4607 97.104 55.7007 96.864C55.9567 96.624 56.2607 96.504 56.6127 96.504C56.9647 96.504 57.2607 96.624 57.5007 96.864C57.7567 97.104 57.8847 97.416 57.8847 97.8C57.8847 98.168 57.7567 98.48 57.5007 98.736C57.2607 98.992 56.9647 99.12 56.6127 99.12ZM70.3799 99.12C70.0279 99.12 69.7239 98.992 69.4679 98.736C69.2279 98.48 69.1079 98.168 69.1079 97.8C69.1079 97.416 69.2279 97.104 69.4679 96.864C69.7239 96.624 70.0279 96.504 70.3799 96.504C70.7319 96.504 71.0279 96.624 71.2679 96.864C71.5239 97.104 71.6519 97.416 71.6519 97.8C71.6519 98.168 71.5239 98.48 71.2679 98.736C71.0279 98.992 70.7319 99.12 70.3799 99.12ZM84.1471 99.12C83.7951 99.12 83.4911 98.992 83.2351 98.736C82.9951 98.48 82.8751 98.168 82.8751 97.8C82.8751 97.416 82.9951 97.104 83.2351 96.864C83.4911 96.624 83.7951 96.504 84.1471 96.504C84.4991 96.504 84.7951 96.624 85.0351 96.864C85.2911 97.104 85.4191 97.416 85.4191 97.8C85.4191 98.168 85.2911 98.48 85.0351 98.736C84.7951 98.992 84.4991 99.12 84.1471 99.12ZM97.9143 99.12C97.5623 99.12 97.2583 98.992 97.0023 98.736C96.7623 98.48 96.6423 98.168 96.6423 97.8C96.6423 97.416 96.7623 97.104 97.0023 96.864C97.2583 96.624 97.5623 96.504 97.9143 96.504C98.2663 96.504 98.5623 96.624 98.8023 96.864C99.0583 97.104 99.1863 97.416 99.1863 97.8C99.1863 98.168 99.0583 98.48 98.8023 98.736C98.5623 98.992 98.2663 99.12 97.9143 99.12ZM111.681 99.12C111.329 99.12 111.025 98.992 110.769 98.736C110.529 98.48 110.409 98.168 110.409 97.8C110.409 97.416 110.529 97.104 110.769 96.864C111.025 96.624 111.329 96.504 111.681 96.504C112.033 96.504 112.329 96.624 112.569 96.864C112.825 97.104 112.953 97.416 112.953 97.8C112.953 98.168 112.825 98.48 112.569 98.736C112.329 98.992 112.033 99.12 111.681 99.12ZM1.544 111.12C1.192 111.12 0.888 110.992 0.632 110.736C0.392 110.48 0.272 110.168 0.272 109.8C0.272 109.416 0.392 109.104 0.632 108.864C0.888 108.624 1.192 108.504 1.544 108.504C1.896 108.504 2.192 108.624 2.432 108.864C2.688 109.104 2.816 109.416 2.816 109.8C2.816 110.168 2.688 110.48 2.432 110.736C2.192 110.992 1.896 111.12 1.544 111.12ZM15.3112 111.12C14.9592 111.12 14.6552 110.992 14.3992 110.736C14.1592 110.48 14.0392 110.168 14.0392 109.8C14.0392 109.416 14.1592 109.104 14.3992 108.864C14.6552 108.624 14.9592 108.504 15.3112 108.504C15.6632 108.504 15.9592 108.624 16.1992 108.864C16.4552 109.104 16.5832 109.416 16.5832 109.8C16.5832 110.168 16.4552 110.48 16.1992 110.736C15.9592 110.992 15.6632 111.12 15.3112 111.12ZM29.0784 111.12C28.7264 111.12 28.4224 110.992 28.1664 110.736C27.9264 110.48 27.8064 110.168 27.8064 109.8C27.8064 109.416 27.9264 109.104 28.1664 108.864C28.4224 108.624 28.7264 108.504 29.0784 108.504C29.4304 108.504 29.7264 108.624 29.9664 108.864C30.2224 109.104 30.3504 109.416 30.3504 109.8C30.3504 110.168 30.2224 110.48 29.9664 110.736C29.7264 110.992 29.4304 111.12 29.0784 111.12ZM42.8456 111.12C42.4936 111.12 42.1896 110.992 41.9336 110.736C41.6936 110.48 41.5736 110.168 41.5736 109.8C41.5736 109.416 41.6936 109.104 41.9336 108.864C42.1896 108.624 42.4936 108.504 42.8456 108.504C43.1976 108.504 43.4936 108.624 43.7336 108.864C43.9896 109.104 44.1176 109.416 44.1176 109.8C44.1176 110.168 43.9896 110.48 43.7336 110.736C43.4936 110.992 43.1976 111.12 42.8456 111.12ZM56.6127 111.12C56.2607 111.12 55.9567 110.992 55.7007 110.736C55.4607 110.48 55.3407 110.168 55.3407 109.8C55.3407 109.416 55.4607 109.104 55.7007 108.864C55.9567 108.624 56.2607 108.504 56.6127 108.504C56.9647 108.504 57.2607 108.624 57.5007 108.864C57.7567 109.104 57.8847 109.416 57.8847 109.8C57.8847 110.168 57.7567 110.48 57.5007 110.736C57.2607 110.992 56.9647 111.12 56.6127 111.12ZM70.3799 111.12C70.0279 111.12 69.7239 110.992 69.4679 110.736C69.2279 110.48 69.1079 110.168 69.1079 109.8C69.1079 109.416 69.2279 109.104 69.4679 108.864C69.7239 108.624 70.0279 108.504 70.3799 108.504C70.7319 108.504 71.0279 108.624 71.2679 108.864C71.5239 109.104 71.6519 109.416 71.6519 109.8C71.6519 110.168 71.5239 110.48 71.2679 110.736C71.0279 110.992 70.7319 111.12 70.3799 111.12ZM84.1471 111.12C83.7951 111.12 83.4911 110.992 83.2351 110.736C82.9951 110.48 82.8751 110.168 82.8751 109.8C82.8751 109.416 82.9951 109.104 83.2351 108.864C83.4911 108.624 83.7951 108.504 84.1471 108.504C84.4991 108.504 84.7951 108.624 85.0351 108.864C85.2911 109.104 85.4191 109.416 85.4191 109.8C85.4191 110.168 85.2911 110.48 85.0351 110.736C84.7951 110.992 84.4991 111.12 84.1471 111.12ZM97.9143 111.12C97.5623 111.12 97.2583 110.992 97.0023 110.736C96.7623 110.48 96.6423 110.168 96.6423 109.8C96.6423 109.416 96.7623 109.104 97.0023 108.864C97.2583 108.624 97.5623 108.504 97.9143 108.504C98.2663 108.504 98.5623 108.624 98.8023 108.864C99.0583 109.104 99.1863 109.416 99.1863 109.8C99.1863 110.168 99.0583 110.48 98.8023 110.736C98.5623 110.992 98.2663 111.12 97.9143 111.12ZM111.681 111.12C111.329 111.12 111.025 110.992 110.769 110.736C110.529 110.48 110.409 110.168 110.409 109.8C110.409 109.416 110.529 109.104 110.769 108.864C111.025 108.624 111.329 108.504 111.681 108.504C112.033 108.504 112.329 108.624 112.569 108.864C112.825 109.104 112.953 109.416 112.953 109.8C112.953 110.168 112.825 110.48 112.569 110.736C112.329 110.992 112.033 111.12 111.681 111.12Z" fill="url(#paint0_linear_16_2116)"/>
<defs>
<linearGradient id="paint0_linear_16_2116" x1="-1" y1="-12" x2="118.931" y2="103.933" gradientUnits="userSpaceOnUse">
<stop stop-color="#09C883"/>
<stop offset="1" stop-color="#54FABE"/>
</linearGradient>
</defs>
</svg>
