<svg width="30" height="31" viewBox="0 0 30 31" fill="none" xmlns="http://www.w3.org/2000/svg">
<path d="M27.7532 5.67236H2.24678C1.00588 5.67236 0 6.67824 0 7.91914V12.2241H30V7.91914C30 6.67824 28.9941 5.67236 27.7532 5.67236Z" fill="#FF4B55"/>
<path d="M0 23.0808C0 24.3217 1.00588 25.3276 2.24678 25.3276H27.7532C28.9941 25.3276 30 24.3217 30 23.0808V18.7759H0V23.0808Z" fill="#464655"/>
<path d="M30 12.2241H0V18.7755H30V12.2241Z" fill="#F5F5F5"/>
<path d="M16.6508 14.479C16.6508 14.2225 16.3995 14.0413 16.1562 14.1225L15.6989 14.2749L15.5879 13.6044C15.5215 13.2044 15.1787 12.9141 14.7731 12.9141H14.3454L13.8981 13.4646H14.4904L14.3246 14.2833L13.8422 14.1225C13.5989 14.0413 13.3477 14.2225 13.3477 14.479V17.2607L14.0135 16.5949L13.6997 17.536H13.3477V18.0865H16.6508V17.536H16.2988L15.9851 16.5949L16.6509 17.2607V14.479H16.6508ZM14.724 17.5359H14.2802L14.5854 16.721L14.724 16.898V17.5359ZM15.2745 17.5359V16.898L15.4131 16.721L15.7182 17.5359H15.2745ZM14.9992 16.5381C14.9992 16.5381 14.1476 15.9618 14.1821 14.8866C14.1821 14.8866 14.7069 14.8006 14.9992 14.3361C15.2917 14.8005 15.8164 14.8866 15.8164 14.8866C15.8508 15.9619 14.9992 16.5381 14.9992 16.5381Z" fill="#F0C727"/>
</svg>
