<svg width="73" height="55" viewBox="0 0 73 55" fill="none" xmlns="http://www.w3.org/2000/svg">
<g clip-path="url(#clip0_16_2428)">
<path d="M67.6388 54.4936H5.20334C2.78252 54.4936 0.744141 52.5222 0.744141 50.0421V5.01937C0.74386 2.60276 2.71859 0.567871 5.20334 0.567871H67.6388C70.0596 0.567871 72.0986 2.53923 72.0986 5.01937V50.0421C72.0986 52.5222 70.1236 54.4936 67.6388 54.4936Z" fill="#E3E3E3"/>
<path opacity="0.1" d="M9.66385 54.4936L36.3582 33.063L36.5494 31.9184L9.02682 12.1416L8.96289 53.5398L9.66385 54.4936Z" fill="#231F20"/>
<path d="M5.20362 54.4934C2.71887 54.4934 0.744141 52.5221 0.744141 50.0419V4.9554C0.744141 2.47554 2.71887 2.03027 5.20362 2.03027C7.68836 2.03027 9.66337 2.53906 9.66337 4.9554V54.4934H5.20362Z" fill="#D54B3D"/>
<path d="M5.20334 2.66612C8.38876 2.66612 9.02606 3.62018 9.02606 4.9554V53.8576H5.20334C3.10103 53.8576 1.38089 52.1406 1.38089 50.0419V4.9554C1.38089 3.55637 2.01792 2.66612 5.20334 2.66612ZM5.20334 2.03027C2.71859 2.03027 0.744141 2.53906 0.744141 4.9554V50.0422C0.744141 52.5223 2.71887 54.4937 5.20362 54.4937H9.66309V4.9554C9.66309 2.47554 7.68808 2.03027 5.20334 2.03027Z" fill="#D72B27"/>
<path d="M67.6394 54.4934H63.1797V4.82835C63.1797 2.3482 65.1547 2.03027 67.6394 2.03027C70.1242 2.03027 72.0992 2.3482 72.0992 4.82835V50.1057C72.0992 52.5221 70.1242 54.4934 67.6394 54.4934Z" fill="#D54B3D"/>
<path d="M67.6394 2.66612C70.5063 2.66612 71.4619 3.23844 71.4619 4.82834V50.1057C71.4619 52.2041 69.7417 53.9211 67.6394 53.9211H63.8167V4.82834C63.8167 3.17491 64.7725 2.66612 67.6394 2.66612ZM67.6394 2.03027C65.1547 2.03027 63.1797 2.3482 63.1797 4.82834V54.5572H67.6394C70.1242 54.5572 72.0992 52.5856 72.0992 50.1057V4.82834C72.0992 2.3482 70.1242 2.03027 67.6394 2.03027Z" fill="#D72B27"/>
<path d="M48.5261 54.4938L1.11719 6.80516L3.61091 7.81742L36.6124 31.5372L72.0987 5.56396V50.1061C72.0987 52.5225 70.1237 54.4938 67.6389 54.4938H48.5261Z" fill="url(#paint0_linear_16_2428)"/>
<path d="M36.3578 33.0631L2.65536 8.64395C0.680354 7.18138 0.106973 4.38331 1.57225 2.41195C3.03809 0.440598 5.90471 -0.00438461 7.94337 1.45818L36.4218 22.1255L65.0905 1.2035C67.0655 -0.25906 69.8688 0.186202 71.3341 2.22109C72.7993 4.19244 72.3535 6.99051 70.3146 8.45308L36.3576 33.0628L36.3578 33.0631Z" fill="#D54B3D"/>
<path d="M67.6386 0.949326C68.849 0.949326 69.9957 1.52165 70.7603 2.53895C71.9707 4.25619 71.5886 6.609 69.9321 7.88098L36.3572 32.3002L3.03716 8.13537C1.31702 6.86339 0.87093 4.44678 2.08134 2.79362C2.78229 1.83957 3.9927 1.204 5.26676 1.204C6.09501 1.204 6.92325 1.45812 7.56028 1.96691L35.975 22.5704L36.3572 22.8251L36.7394 22.5704L65.345 1.64898C66.046 1.204 66.8103 0.949326 67.6386 0.949326ZM67.6386 0.313477C66.7467 0.313477 65.7908 0.567872 65.0265 1.14019L36.3572 22.0616L7.8788 1.39459C7.11476 0.822268 6.15921 0.567872 5.20339 0.567872C3.80176 0.567872 2.40013 1.20372 1.50824 2.41217C0.106609 4.38325 0.67999 7.18132 2.655 8.64388L36.3575 33.1269L70.2506 8.4533C72.2256 6.99073 72.6717 4.25619 71.2701 2.2213C70.3782 0.949326 69.0402 0.313477 67.6386 0.313477Z" fill="#D72B27"/>
</g>
<defs>
<linearGradient id="paint0_linear_16_2428" x1="1.12003" y1="30.0279" x2="72.1214" y2="30.0279" gradientUnits="userSpaceOnUse">
<stop stop-opacity="0.1"/>
<stop offset="1" stop-opacity="0.2"/>
</linearGradient>
<clipPath id="clip0_16_2428">
<rect width="71.7778" height="54.2934" fill="white" transform="translate(0.673828 0.313477)"/>
</clipPath>
</defs>
</svg>
