<svg width="64" height="63" viewBox="0 0 64 63" fill="none" xmlns="http://www.w3.org/2000/svg">
<path d="M57.2954 26.3212H55.1952V26.213H31.7294V36.6422H46.4646C44.3149 42.7134 38.5384 47.0715 31.7294 47.0715C23.09 47.0715 16.0855 40.0669 16.0855 31.4276C16.0855 22.7883 23.09 15.7837 31.7294 15.7837C35.7173 15.7837 39.3453 17.2882 42.1078 19.7456L49.4826 12.3708C44.8259 8.0309 38.597 5.35449 31.7294 5.35449C17.3305 5.35449 5.65625 17.0287 5.65625 31.4276C5.65625 45.8265 17.3305 57.5007 31.7294 57.5007C46.1283 57.5007 57.8025 45.8265 57.8025 31.4276C57.8025 29.6794 57.6226 27.9729 57.2954 26.3212Z" fill="#FFC107"/>
<path d="M8.66211 19.2919L17.2284 25.5742C19.5463 19.8355 25.1599 15.7837 31.729 15.7837C35.7169 15.7837 39.345 17.2882 42.1074 19.7456L49.4822 12.3708C44.8255 8.0309 38.5967 5.35449 31.729 5.35449C21.7143 5.35449 13.0294 11.0085 8.66211 19.2919Z" fill="#FF3D00"/>
<path d="M31.7292 57.5005C38.4639 57.5005 44.5832 54.9232 49.2099 50.7319L41.1403 43.9034C38.4346 45.961 35.1284 47.0739 31.7292 47.0713C24.9476 47.0713 19.1893 42.747 17.02 36.7124L8.51758 43.2633C12.8327 51.7071 21.5959 57.5005 31.7292 57.5005Z" fill="#4CAF50"/>
<path d="M57.2945 26.3211H55.1943V26.2129H31.7285V36.6421H46.4637C45.4354 39.5316 43.5831 42.0565 41.1357 43.9048L41.1396 43.9022L49.2092 50.7307C48.6382 51.2496 57.8016 44.4641 57.8016 31.4275C57.8016 29.6793 57.6217 27.9728 57.2945 26.3211Z" fill="#1976D2"/>
</svg>
