<svg width="18" height="18" viewBox="0 0 18 18" fill="none" xmlns="http://www.w3.org/2000/svg">
<path fill-rule="evenodd" clip-rule="evenodd" d="M18 18H14.3016V11.7007C14.3016 9.97365 13.6453 9.00849 12.2783 9.00849C10.7912 9.00849 10.0143 10.0129 10.0143 11.7007V18H6.45V6H10.0143V7.6164C10.0143 7.6164 11.0859 5.63338 13.6324 5.63338C16.1777 5.63338 18 7.1877 18 10.4023V18ZM2.19785 4.4287C0.983789 4.4287 0 3.43719 0 2.21435C0 0.991508 0.983789 0 2.19785 0C3.41191 0 4.39512 0.991508 4.39512 2.21435C4.39512 3.43719 3.41191 4.4287 2.19785 4.4287ZM0.357422 18H4.07402V6H0.357422V18Z" fill="white"/>
</svg>
