<svg width="15" height="24" viewBox="0 0 15 24" fill="none" xmlns="http://www.w3.org/2000/svg">
<path d="M11.737 0.14502H3.07726C2.35954 0.14502 1.67121 0.430132 1.16371 0.937636C0.656207 1.44514 0.371094 2.13346 0.371094 2.85118V21.2531C0.371094 21.9708 0.656207 22.6591 1.16371 23.1666C1.67121 23.6741 2.35954 23.9593 3.07726 23.9593H11.737C12.4547 23.9593 13.143 23.6741 13.6505 23.1666C14.158 22.6591 14.4431 21.9708 14.4431 21.2531V2.85118C14.4431 2.13346 14.158 1.44514 13.6505 0.937636C13.143 0.430132 12.4547 0.14502 11.737 0.14502ZM7.40712 22.8768C6.50867 22.8768 5.78342 22.1515 5.78342 21.2531C5.78342 20.3546 6.50867 19.6294 7.40712 19.6294C8.30556 19.6294 9.03082 20.3546 9.03082 21.2531C9.03082 22.1515 8.30556 22.8768 7.40712 22.8768ZM12.2782 18.5469H2.53602V3.39242H12.2782V18.5469Z" fill="white"/>
</svg>
