<svg width="48" height="48" viewBox="0 0 48 48" fill="none" xmlns="http://www.w3.org/2000/svg">
<rect width="48" height="48" rx="20" fill="url(#paint0_linear_16_2145)"/>
<path d="M28.7285 10.2083H19.0618C18.2607 10.2083 17.4923 10.5266 16.9258 11.0931C16.3593 11.6596 16.041 12.428 16.041 13.2292V33.7708C16.041 34.572 16.3593 35.3404 16.9258 35.9069C17.4923 36.4734 18.2607 36.7917 19.0618 36.7917H28.7285C29.5297 36.7917 30.298 36.4734 30.8646 35.9069C31.4311 35.3404 31.7493 34.572 31.7493 33.7708V13.2292C31.7493 12.428 31.4311 11.6596 30.8646 11.0931C30.298 10.5266 29.5297 10.2083 28.7285 10.2083ZM23.8952 35.5833C22.8923 35.5833 22.0827 34.7738 22.0827 33.7708C22.0827 32.7679 22.8923 31.9583 23.8952 31.9583C24.8981 31.9583 25.7077 32.7679 25.7077 33.7708C25.7077 34.7738 24.8981 35.5833 23.8952 35.5833ZM29.3327 30.75H18.4577V13.8333H29.3327V30.75Z" fill="white"/>
<defs>
<linearGradient id="paint0_linear_16_2145" x1="0" y1="0" x2="48" y2="48" gradientUnits="userSpaceOnUse">
<stop stop-color="#ABDCFF"/>
<stop offset="1" stop-color="#0396FF"/>
</linearGradient>
</defs>
</svg>
