<svg width="91" height="21" viewBox="0 0 91 21" fill="none" xmlns="http://www.w3.org/2000/svg">
<path d="M0 16.4359V5.23589H1.184V15.4119H7.456V16.4359H0Z" fill="url(#paint0_linear_16_2457)"/>
<path d="M11.9849 16.5159C11.1102 16.5159 10.3422 16.3346 9.68087 15.9719C9.01954 15.5986 8.50221 15.0919 8.12887 14.4519C7.75554 13.8012 7.56887 13.0599 7.56887 12.2279C7.56887 11.3959 7.74487 10.6599 8.09687 10.0199C8.45954 9.37989 8.95021 8.87855 9.56887 8.51589C10.1982 8.14255 10.9022 7.95589 11.6809 7.95589C12.4702 7.95589 13.1689 8.13722 13.7769 8.49989C14.3955 8.85189 14.8809 9.35322 15.2329 10.0039C15.5849 10.6439 15.7609 11.3852 15.7609 12.2279C15.7609 12.2812 15.7555 12.3399 15.7449 12.4039C15.7449 12.4572 15.7449 12.5159 15.7449 12.5799H8.43287V11.7319H15.1369L14.6889 12.0679C14.6889 11.4599 14.5555 10.9212 14.2889 10.4519C14.0329 9.97189 13.6809 9.59855 13.2329 9.33189C12.7849 9.06522 12.2675 8.93189 11.6809 8.93189C11.1049 8.93189 10.5875 9.06522 10.1289 9.33189C9.67021 9.59855 9.31287 9.97189 9.05688 10.4519C8.80087 10.9319 8.67287 11.4812 8.67287 12.0999V12.2759C8.67287 12.9159 8.81154 13.4812 9.08887 13.9719C9.37687 14.4519 9.77154 14.8306 10.2729 15.1079C10.7849 15.3746 11.3662 15.5079 12.0169 15.5079C12.5289 15.5079 13.0035 15.4172 13.4409 15.2359C13.8889 15.0546 14.2729 14.7772 14.5929 14.4039L15.2329 15.1399C14.8595 15.5879 14.3902 15.9292 13.8249 16.1639C13.2702 16.3986 12.6569 16.5159 11.9849 16.5159Z" fill="url(#paint1_linear_16_2457)"/>
<path d="M20.0891 16.5159C19.2998 16.5159 18.6918 16.3026 18.2651 15.8759C17.8385 15.4492 17.6251 14.8466 17.6251 14.0679V6.17989H18.7611V14.0039C18.7611 14.4946 18.8838 14.8732 19.1291 15.1399C19.3851 15.4066 19.7478 15.5399 20.2171 15.5399C20.7185 15.5399 21.1345 15.3959 21.4651 15.1079L21.8651 15.9239C21.6411 16.1266 21.3691 16.2759 21.0491 16.3719C20.7398 16.4679 20.4198 16.5159 20.0891 16.5159ZM16.1211 8.97989V8.03589H21.3211V8.97989H16.1211Z" fill="url(#paint2_linear_16_2457)"/>
<path d="M22.6051 8.46789L23.3091 5.52389L23.4371 6.19589C23.1918 6.19589 22.9838 6.12122 22.8131 5.97189C22.6531 5.81189 22.5731 5.60389 22.5731 5.34789C22.5731 5.09189 22.6531 4.88389 22.8131 4.72389C22.9838 4.56389 23.1865 4.48389 23.4211 4.48389C23.6665 4.48389 23.8638 4.56922 24.0131 4.73989C24.1731 4.89989 24.2531 5.10255 24.2531 5.34789C24.2531 5.43322 24.2478 5.51855 24.2371 5.60389C24.2265 5.68922 24.2051 5.78522 24.1731 5.89189C24.1518 5.98789 24.1145 6.11055 24.0611 6.25989L23.3731 8.46789H22.6051Z" fill="url(#paint3_linear_16_2457)"/>
<path d="M28.0498 16.5159C27.3564 16.5159 26.7004 16.4199 26.0818 16.2279C25.4631 16.0252 24.9777 15.7746 24.6257 15.4759L25.1378 14.5799C25.4791 14.8359 25.9164 15.0599 26.4498 15.2519C26.9831 15.4332 27.5431 15.5239 28.1298 15.5239C28.9298 15.5239 29.5058 15.4012 29.8577 15.1559C30.2097 14.8999 30.3857 14.5639 30.3857 14.1479C30.3857 13.8386 30.2844 13.5986 30.0818 13.4279C29.8898 13.2466 29.6338 13.1132 29.3138 13.0279C28.9938 12.9319 28.6364 12.8519 28.2418 12.7879C27.8471 12.7239 27.4524 12.6492 27.0578 12.5639C26.6737 12.4786 26.3218 12.3559 26.0018 12.1959C25.6818 12.0252 25.4204 11.7959 25.2178 11.5079C25.0258 11.2199 24.9298 10.8359 24.9298 10.3559C24.9298 9.89722 25.0578 9.48655 25.3138 9.12389C25.5698 8.76122 25.9431 8.47855 26.4338 8.27589C26.9351 8.06255 27.5431 7.95589 28.2578 7.95589C28.8018 7.95589 29.3458 8.03055 29.8898 8.17989C30.4338 8.31855 30.8818 8.50522 31.2338 8.73989L30.7378 9.65189C30.3644 9.39589 29.9644 9.21455 29.5378 9.10789C29.1111 8.99055 28.6844 8.93189 28.2578 8.93189C27.5004 8.93189 26.9404 9.06522 26.5778 9.33189C26.2258 9.58789 26.0498 9.91855 26.0498 10.3239C26.0498 10.6439 26.1458 10.8946 26.3377 11.0759C26.5404 11.2572 26.8018 11.4012 27.1217 11.5079C27.4524 11.6039 27.8097 11.6839 28.1938 11.7479C28.5884 11.8119 28.9778 11.8919 29.3618 11.9879C29.7564 12.0732 30.1138 12.1959 30.4338 12.3559C30.7644 12.5052 31.0258 12.7239 31.2178 13.0119C31.4204 13.2892 31.5218 13.6572 31.5218 14.1159C31.5218 14.6066 31.3831 15.0332 31.1058 15.3959C30.8391 15.7479 30.4444 16.0252 29.9218 16.2279C29.4098 16.4199 28.7858 16.5159 28.0498 16.5159Z" fill="url(#paint4_linear_16_2457)"/>
<path d="M38.9297 16.4359V6.25989H34.9938V5.23589H44.0498V6.25989H40.1138V16.4359H38.9297Z" fill="url(#paint5_linear_16_2457)"/>
<path d="M49.8565 16.4359V14.5799L49.8085 14.2759V11.1719C49.8085 10.4572 49.6058 9.90789 49.2005 9.52389C48.8058 9.13989 48.2138 8.94789 47.4245 8.94789C46.8805 8.94789 46.3632 9.03855 45.8725 9.21989C45.3818 9.40122 44.9658 9.64122 44.6245 9.93989L44.1125 9.09189C44.5392 8.72922 45.0512 8.45189 45.6485 8.25989C46.2458 8.05722 46.8752 7.95589 47.5365 7.95589C48.6245 7.95589 49.4618 8.22789 50.0485 8.77189C50.6458 9.30522 50.9445 10.1212 50.9445 11.2199V16.4359H49.8565ZM46.9605 16.5159C46.3312 16.5159 45.7818 16.4146 45.3125 16.2119C44.8538 15.9986 44.5018 15.7106 44.2565 15.3479C44.0112 14.9746 43.8885 14.5479 43.8885 14.0679C43.8885 13.6306 43.9898 13.2359 44.1925 12.8839C44.4058 12.5212 44.7472 12.2332 45.2165 12.0199C45.6965 11.7959 46.3365 11.6839 47.1365 11.6839H50.0325V12.5319H47.1685C46.3578 12.5319 45.7925 12.6759 45.4725 12.9639C45.1632 13.2519 45.0085 13.6092 45.0085 14.0359C45.0085 14.5159 45.1952 14.8999 45.5685 15.1879C45.9418 15.4759 46.4645 15.6199 47.1365 15.6199C47.7765 15.6199 48.3258 15.4759 48.7845 15.1879C49.2538 14.8892 49.5952 14.4626 49.8085 13.9079L50.0645 14.6919C49.8512 15.2466 49.4778 15.6892 48.9445 16.0199C48.4218 16.3506 47.7605 16.5159 46.9605 16.5159Z" fill="url(#paint6_linear_16_2457)"/>
<path d="M53.39 16.4359V4.56389H54.526V16.4359H53.39Z" fill="url(#paint7_linear_16_2457)"/>
<path d="M57.9429 14.2599L57.9749 12.8039L63.2069 8.03589H64.5989L60.9029 11.5719L60.2629 12.1159L57.9429 14.2599ZM57.0469 16.4359V4.56389H58.1829V16.4359H57.0469ZM63.5589 16.4359L60.0549 12.0679L60.7909 11.1879L64.9509 16.4359H63.5589Z" fill="url(#paint8_linear_16_2457)"/>
<path d="M81.0637 15.6842C80.8595 15.8009 80.6772 15.7825 80.5168 15.6291C80.3564 15.4757 80.3345 15.2972 80.4512 15.0936L82.573 11.3748H72.5762C72.3283 11.3748 72.1203 11.2908 71.9523 11.1228C71.7843 10.9548 71.7006 10.7472 71.7012 10.4998C71.7012 10.2519 71.7852 10.0439 71.9532 9.87594C72.1212 9.70794 72.3288 9.62424 72.5762 9.62482H82.573L80.4512 5.90607C80.3345 5.7019 80.3564 5.52311 80.5168 5.3697C80.6772 5.21628 80.8595 5.19819 81.0637 5.31544L88.0418 9.75607C88.3189 9.93107 88.4574 10.179 88.4574 10.4998C88.4574 10.8207 88.3189 11.0686 88.0418 11.2436L81.0637 15.6842Z" fill="#32CCBC"/>
<defs>
<linearGradient id="paint0_linear_16_2457" x1="-4.90056e-07" y1="14.293" x2="84.6886" y2="16.3414" gradientUnits="userSpaceOnUse">
<stop stop-color="#3A6B66"/>
<stop offset="0.300628" stop-color="#32CCBC"/>
<stop offset="0.56044" stop-color="#32CCBC"/>
<stop offset="0.697097" stop-color="#6DE7DA"/>
</linearGradient>
<linearGradient id="paint1_linear_16_2457" x1="-4.90056e-07" y1="14.293" x2="84.6886" y2="16.3414" gradientUnits="userSpaceOnUse">
<stop stop-color="#3A6B66"/>
<stop offset="0.300628" stop-color="#32CCBC"/>
<stop offset="0.56044" stop-color="#32CCBC"/>
<stop offset="0.697097" stop-color="#6DE7DA"/>
</linearGradient>
<linearGradient id="paint2_linear_16_2457" x1="-4.90056e-07" y1="14.293" x2="84.6886" y2="16.3414" gradientUnits="userSpaceOnUse">
<stop stop-color="#3A6B66"/>
<stop offset="0.300628" stop-color="#32CCBC"/>
<stop offset="0.56044" stop-color="#32CCBC"/>
<stop offset="0.697097" stop-color="#6DE7DA"/>
</linearGradient>
<linearGradient id="paint3_linear_16_2457" x1="-4.90056e-07" y1="14.293" x2="84.6886" y2="16.3414" gradientUnits="userSpaceOnUse">
<stop stop-color="#3A6B66"/>
<stop offset="0.300628" stop-color="#32CCBC"/>
<stop offset="0.56044" stop-color="#32CCBC"/>
<stop offset="0.697097" stop-color="#6DE7DA"/>
</linearGradient>
<linearGradient id="paint4_linear_16_2457" x1="-4.90056e-07" y1="14.293" x2="84.6886" y2="16.3414" gradientUnits="userSpaceOnUse">
<stop stop-color="#3A6B66"/>
<stop offset="0.300628" stop-color="#32CCBC"/>
<stop offset="0.56044" stop-color="#32CCBC"/>
<stop offset="0.697097" stop-color="#6DE7DA"/>
</linearGradient>
<linearGradient id="paint5_linear_16_2457" x1="-4.90056e-07" y1="14.293" x2="84.6886" y2="16.3414" gradientUnits="userSpaceOnUse">
<stop stop-color="#3A6B66"/>
<stop offset="0.300628" stop-color="#32CCBC"/>
<stop offset="0.56044" stop-color="#32CCBC"/>
<stop offset="0.697097" stop-color="#6DE7DA"/>
</linearGradient>
<linearGradient id="paint6_linear_16_2457" x1="-4.90056e-07" y1="14.293" x2="84.6886" y2="16.3414" gradientUnits="userSpaceOnUse">
<stop stop-color="#3A6B66"/>
<stop offset="0.300628" stop-color="#32CCBC"/>
<stop offset="0.56044" stop-color="#32CCBC"/>
<stop offset="0.697097" stop-color="#6DE7DA"/>
</linearGradient>
<linearGradient id="paint7_linear_16_2457" x1="-4.90056e-07" y1="14.293" x2="84.6886" y2="16.3414" gradientUnits="userSpaceOnUse">
<stop stop-color="#3A6B66"/>
<stop offset="0.300628" stop-color="#32CCBC"/>
<stop offset="0.56044" stop-color="#32CCBC"/>
<stop offset="0.697097" stop-color="#6DE7DA"/>
</linearGradient>
<linearGradient id="paint8_linear_16_2457" x1="-4.90056e-07" y1="14.293" x2="84.6886" y2="16.3414" gradientUnits="userSpaceOnUse">
<stop stop-color="#3A6B66"/>
<stop offset="0.300628" stop-color="#32CCBC"/>
<stop offset="0.56044" stop-color="#32CCBC"/>
<stop offset="0.697097" stop-color="#6DE7DA"/>
</linearGradient>
</defs>
</svg>
