<svg width="74" height="75" viewBox="0 0 74 75" fill="none" xmlns="http://www.w3.org/2000/svg">
<g clip-path="url(#clip0_16_2415)">
<path d="M66.5095 55.4149C65.5317 55.9325 64.5252 56.3926 63.49 56.7665C60.1829 58.003 56.7033 58.6357 53.1662 58.6357C39.564 58.6357 27.7161 49.2896 27.7161 37.2692C27.7449 33.9908 29.5566 30.9713 32.4323 29.4185C20.1242 29.9361 16.9609 42.7618 16.9609 50.2674C16.9609 71.5189 36.5445 73.6757 40.7718 73.6757C43.0437 73.6757 46.4657 73.0143 48.5363 72.3528L48.9101 72.2378C56.8471 69.5059 63.5762 64.1571 68.0623 57.0541C68.4074 56.5077 68.2349 55.8175 67.7173 55.4724C67.3434 55.2424 66.8833 55.2136 66.5095 55.4149Z" fill="url(#paint0_linear_16_2415)"/>
<path opacity="0.35" d="M66.5095 55.4149C65.5317 55.9325 64.5252 56.3926 63.49 56.7665C60.1829 58.003 56.7033 58.6357 53.1662 58.6357C39.564 58.6357 27.7161 49.2896 27.7161 37.2692C27.7449 33.9908 29.5566 30.9713 32.4323 29.4185C20.1242 29.9361 16.9609 42.7618 16.9609 50.2674C16.9609 71.5189 36.5445 73.6757 40.7718 73.6757C43.0437 73.6757 46.4657 73.0143 48.5363 72.3528L48.9101 72.2378C56.8471 69.5059 63.5762 64.1571 68.0623 57.0541C68.4074 56.5077 68.2349 55.8175 67.7173 55.4724C67.3434 55.2424 66.8833 55.2136 66.5095 55.4149Z" fill="url(#paint1_radial_16_2415)"/>
<path d="M30.4769 70.0519C27.9175 68.4703 25.7032 66.371 23.949 63.9267C16.3859 53.5741 18.6577 39.0517 29.0103 31.4886C30.1031 30.7122 31.2246 29.9933 32.4324 29.4181C33.3239 28.9868 34.848 28.2391 36.8897 28.2678C39.7942 28.2966 42.5261 29.6769 44.2803 32.0063C45.4306 33.5591 46.092 35.4284 46.1208 37.3838C46.1208 37.3263 53.1663 14.4932 23.1151 14.4932C10.4907 14.4932 0.109384 26.4849 0.109384 36.9812C0.05187 42.5314 1.25967 48.0527 3.589 53.0852C11.526 69.9944 30.8508 78.2765 48.5651 72.3813C42.4974 74.2792 35.8832 73.4453 30.4769 70.0519Z" fill="url(#paint2_linear_16_2415)"/>
<path opacity="0.41" d="M30.4769 70.0519C27.9175 68.4703 25.7032 66.371 23.949 63.9267C16.3859 53.5741 18.6577 39.0517 29.0103 31.4886C30.1031 30.7122 31.2246 29.9933 32.4324 29.4181C33.3239 28.9868 34.848 28.2391 36.8897 28.2678C39.7942 28.2966 42.5261 29.6769 44.2803 32.0063C45.4306 33.5591 46.092 35.4284 46.1208 37.3838C46.1208 37.3263 53.1663 14.4932 23.1151 14.4932C10.4907 14.4932 0.109384 26.4849 0.109384 36.9812C0.05187 42.5314 1.25967 48.0527 3.589 53.0852C11.526 69.9944 30.8508 78.2765 48.5651 72.3813C42.4974 74.2792 35.8832 73.4453 30.4769 70.0519Z" fill="url(#paint3_radial_16_2415)"/>
<path d="M43.8772 43.4517C43.6471 43.7393 42.9282 44.1706 42.9282 45.0908C42.9282 45.8385 43.4171 46.5575 44.2798 47.1614C48.4208 50.0371 56.214 49.6632 56.2427 49.6632C59.3198 49.6632 62.3105 48.8293 64.9562 47.2764C70.3625 44.1131 73.6983 38.3329 73.6983 32.0639C73.7846 25.6223 71.3978 21.3375 70.4488 19.4395C64.3522 7.50528 51.1815 0.632324 36.8892 0.632324C16.7592 0.632324 0.367649 16.7938 0.0800781 36.9238C0.223864 26.4275 10.6627 17.9441 23.0858 17.9441C24.0923 17.9441 29.8437 18.0304 35.1638 20.8486C39.8512 23.3217 42.3243 26.2837 44.021 29.2457C45.8039 32.3227 46.1202 36.1761 46.1202 37.729C46.1202 39.2531 45.3438 41.5537 43.8772 43.4517Z" fill="url(#paint4_radial_16_2415)"/>
<path d="M43.8772 43.4517C43.6471 43.7393 42.9282 44.1706 42.9282 45.0908C42.9282 45.8385 43.4171 46.5575 44.2798 47.1614C48.4208 50.0371 56.214 49.6632 56.2427 49.6632C59.3198 49.6632 62.3105 48.8293 64.9562 47.2764C70.3625 44.1131 73.6983 38.3329 73.6983 32.0639C73.7846 25.6223 71.3978 21.3375 70.4488 19.4395C64.3522 7.50528 51.1815 0.632324 36.8892 0.632324C16.7592 0.632324 0.367649 16.7938 0.0800781 36.9238C0.223864 26.4275 10.6627 17.9441 23.0858 17.9441C24.0923 17.9441 29.8437 18.0304 35.1638 20.8486C39.8512 23.3217 42.3243 26.2837 44.021 29.2457C45.8039 32.3227 46.1202 36.1761 46.1202 37.729C46.1202 39.2531 45.3438 41.5537 43.8772 43.4517Z" fill="url(#paint5_radial_16_2415)"/>
</g>
<defs>
<linearGradient id="paint0_linear_16_2415" x1="16.9621" y1="51.5384" x2="68.2312" y2="51.5384" gradientUnits="userSpaceOnUse">
<stop stop-color="#0C59A4"/>
<stop offset="1" stop-color="#114A8B"/>
</linearGradient>
<radialGradient id="paint1_radial_16_2415" cx="0" cy="0" r="1" gradientUnits="userSpaceOnUse" gradientTransform="translate(45.2844 51.9457) scale(27.4258 26.0516)">
<stop offset="0.72" stop-opacity="0"/>
<stop offset="0.95" stop-opacity="0.53"/>
<stop offset="1"/>
</radialGradient>
<linearGradient id="paint2_linear_16_2415" x1="44.0132" y1="29.3163" x2="11.9855" y2="64.2022" gradientUnits="userSpaceOnUse">
<stop stop-color="#1B9DE2"/>
<stop offset="0.16" stop-color="#1595DF"/>
<stop offset="0.67" stop-color="#0680D7"/>
<stop offset="1" stop-color="#0078D4"/>
</linearGradient>
<radialGradient id="paint3_radial_16_2415" cx="0" cy="0" r="1" gradientUnits="userSpaceOnUse" gradientTransform="translate(20.3856 57.8617) rotate(-81.3826) scale(41.2371 33.322)">
<stop offset="0.76" stop-opacity="0"/>
<stop offset="0.95" stop-opacity="0.5"/>
<stop offset="1"/>
</radialGradient>
<radialGradient id="paint4_radial_16_2415" cx="0" cy="0" r="1" gradientUnits="userSpaceOnUse" gradientTransform="translate(7.51426 14.2611) rotate(92.2911) scale(58.248 124.075)">
<stop stop-color="#35C1F1"/>
<stop offset="0.11" stop-color="#34C1ED"/>
<stop offset="0.23" stop-color="#2FC2DF"/>
<stop offset="0.31" stop-color="#2BC3D2"/>
<stop offset="0.67" stop-color="#36C752"/>
</radialGradient>
<radialGradient id="paint5_radial_16_2415" cx="0" cy="0" r="1" gradientUnits="userSpaceOnUse" gradientTransform="translate(69.1145 22.892) rotate(73.7366) scale(27.9868 22.7632)">
<stop stop-color="#66EB6E"/>
<stop offset="1" stop-color="#66EB6E" stop-opacity="0"/>
</radialGradient>
<clipPath id="clip0_16_2415">
<rect width="73.6182" height="73.6182" fill="white" transform="translate(0.0800781 0.632324)"/>
</clipPath>
</defs>
</svg>
