<svg width="43" height="50" viewBox="0 0 43 50" fill="none" xmlns="http://www.w3.org/2000/svg">
<g clip-path="url(#clip0_16_2380)">
<path d="M35.9584 4.08718C33.6544 1.4739 29.4894 0.353516 24.1612 0.353516H8.69739C8.17022 0.353535 7.66034 0.540691 7.25943 0.881335C6.85852 1.22198 6.59288 1.69377 6.51026 2.21188L0.0713965 42.8488C-0.0565871 43.6502 0.566961 44.3758 1.38315 44.3758H10.93L13.3276 29.2425L13.2532 29.7164C13.424 28.6467 14.3434 27.8577 15.4321 27.8577H19.9687C28.8809 27.8577 35.8593 24.2555 37.8978 13.8351C37.9583 13.5269 38.0108 13.2269 38.0561 12.9339C37.7988 12.7983 37.7988 12.7983 38.0561 12.9339C38.6631 9.08241 38.0519 6.46073 35.9584 4.08718Z" fill="#27346A"/>
<path d="M16.9806 11.5465C17.2416 11.4228 17.5271 11.3587 17.8161 11.3589H29.9395C31.3751 11.3589 32.7142 11.4518 33.9378 11.6478C34.2802 11.7021 34.6208 11.767 34.9592 11.8423C35.4387 11.9476 35.9128 12.0765 36.3795 12.2285C36.9811 12.4284 37.5413 12.6612 38.0562 12.9339C38.6631 9.08093 38.0519 6.46073 35.9584 4.08719C33.653 1.4739 29.4894 0.353516 24.1612 0.353516H8.69607C7.60722 0.353516 6.68091 1.14234 6.51026 2.21188L0.0713974 42.8474C-0.0565862 43.65 0.566962 44.3746 1.38182 44.3746H10.93L15.9043 12.9846C15.9532 12.676 16.0767 12.3839 16.2642 12.1334C16.4517 11.8829 16.6976 11.6815 16.9806 11.5465Z" fill="#27346A"/>
<path d="M37.8976 13.8348C35.8591 24.2537 28.8809 27.8574 19.9685 27.8574H15.4305C14.3419 27.8574 13.4223 28.6464 13.2532 29.7161L10.2704 48.5325C10.1589 49.2338 10.7039 49.8693 11.4169 49.8693H19.4647C19.9257 49.8692 20.3715 49.7054 20.722 49.4074C21.0725 49.1094 21.3046 48.6967 21.3767 48.2436L21.455 47.8355L22.9718 38.2696L23.0695 37.7409C23.1416 37.2878 23.3737 36.8752 23.7241 36.5772C24.0746 36.2792 24.5204 36.1154 24.9814 36.1152H26.1858C33.9817 36.1152 40.0861 32.9635 41.8699 23.8485C42.6145 20.0393 42.2292 16.859 40.2595 14.6251C39.6621 13.9485 38.9202 13.3897 38.0559 12.9336C38.0091 13.2281 37.9583 13.5266 37.8976 13.8348Z" fill="#2790C3"/>
<path d="M35.922 12.0877C35.6042 11.9953 35.2833 11.9135 34.96 11.8425C34.6215 11.7684 34.2809 11.704 33.9386 11.6493C32.7137 11.452 31.3757 11.3589 29.9387 11.3589H17.8168C17.5275 11.3582 17.2419 11.4229 16.9813 11.548C16.6979 11.6826 16.4518 11.8839 16.2642 12.1345C16.0767 12.385 15.9533 12.6774 15.9049 12.9861L13.3283 29.2427L13.2539 29.7166C13.4234 28.6469 14.3428 27.8579 15.4316 27.8579H19.9696C28.8818 27.8579 35.86 24.2557 37.8985 13.8353C37.9592 13.5271 38.0101 13.2284 38.0569 12.9341C37.5407 12.6629 36.982 12.4286 36.3802 12.23C36.2284 12.1799 36.0757 12.1324 35.9222 12.0877" fill="#1F264F"/>
</g>
<defs>
<clipPath id="clip0_16_2380">
<rect width="42.3305" height="49.6923" fill="white" transform="translate(0.0488281 0.219238)"/>
</clipPath>
</defs>
</svg>
