<svg width="26" height="25" viewBox="0 0 26 25" fill="none" xmlns="http://www.w3.org/2000/svg">
<path d="M20.4208 8.44297L20.2035 8.23511L22.5561 5.89194C22.6767 5.74508 22.7383 5.55864 22.7289 5.36888C22.7196 5.17912 22.64 4.99961 22.5057 4.86527C22.3714 4.73092 22.1919 4.65136 22.0021 4.64204C21.8123 4.63272 21.6259 4.69431 21.479 4.81484L19.0319 7.27139C17.2526 6.01952 15.1293 5.34926 12.9537 5.35264C10.7781 5.35602 8.65694 6.03289 6.8815 7.29028L4.41551 4.81484C4.26865 4.69431 4.0822 4.63272 3.89244 4.64204C3.70268 4.65136 3.52317 4.73092 3.38883 4.86527C3.25449 4.99961 3.17492 5.17912 3.1656 5.36888C3.15628 5.55864 3.21787 5.74508 3.33841 5.89194L5.70992 8.254C4.65238 9.25611 3.81033 10.4634 3.23525 11.802C2.66017 13.1406 2.36413 14.5824 2.36524 16.0394V18.203C2.36524 18.6039 2.52451 18.9884 2.80801 19.2719C3.09151 19.5555 3.47602 19.7147 3.87696 19.7147H22.0176C22.4185 19.7147 22.803 19.5555 23.0865 19.2719C23.37 18.9884 23.5293 18.6039 23.5293 18.203V15.9354C23.5336 14.5429 23.2609 13.1634 22.7273 11.8771C22.1937 10.5909 21.4096 9.42351 20.4208 8.44297ZM9.5459 15.9354C9.32166 15.9354 9.10245 15.8689 8.916 15.7443C8.72955 15.6198 8.58423 15.4427 8.49842 15.2355C8.4126 15.0283 8.39015 14.8004 8.4339 14.5804C8.47765 14.3605 8.58563 14.1585 8.74419 13.9999C8.90275 13.8414 9.10478 13.7334 9.32471 13.6896C9.54464 13.6459 9.77261 13.6683 9.97978 13.7542C10.187 13.84 10.364 13.9853 10.4886 14.1717C10.6132 14.3582 10.6797 14.5774 10.6797 14.8016C10.6797 15.1023 10.5602 15.3907 10.3476 15.6033C10.135 15.816 9.8466 15.9354 9.5459 15.9354ZM16.3486 15.9354C16.1244 15.9354 15.9052 15.8689 15.7187 15.7443C15.5323 15.6198 15.387 15.4427 15.3012 15.2355C15.2153 15.0283 15.1929 14.8004 15.2366 14.5804C15.2804 14.3605 15.3884 14.1585 15.5469 13.9999C15.7055 13.8414 15.9075 13.7334 16.1274 13.6896C16.3474 13.6459 16.5753 13.6683 16.7825 13.7542C16.9897 13.84 17.1668 13.9853 17.2913 14.1717C17.4159 14.3582 17.4824 14.5774 17.4824 14.8016C17.4824 15.1023 17.363 15.3907 17.1503 15.6033C16.9377 15.816 16.6493 15.9354 16.3486 15.9354Z" fill="white"/>
</svg>
