<svg width="48" height="48" viewBox="0 0 48 48" fill="none" xmlns="http://www.w3.org/2000/svg">
<rect width="48" height="48" rx="20" fill="url(#paint0_linear_16_2121)"/>
<path d="M29 34L28.7 32.5C28.5 32.4167 28.3123 32.329 28.137 32.237C27.9617 32.145 27.7827 32.0327 27.6 31.9L26.15 32.35L25.15 30.65L26.3 29.65C26.2667 29.45 26.25 29.2333 26.25 29C26.25 28.7667 26.2667 28.55 26.3 28.35L25.15 27.35L26.15 25.65L27.6 26.1C27.7833 25.9667 27.9627 25.8543 28.138 25.763C28.3133 25.6717 28.5007 25.584 28.7 25.5L29 24H31L31.3 25.5C31.5 25.5833 31.6877 25.671 31.863 25.763C32.0383 25.855 32.2173 25.9673 32.4 26.1L33.85 25.65L34.85 27.35L33.7 28.35C33.7333 28.55 33.75 28.7667 33.75 29C33.75 29.2333 33.7333 29.45 33.7 29.65L34.85 30.65L33.85 32.35L32.4 31.9C32.2167 32.0333 32.0377 32.146 31.863 32.238C31.6883 32.33 31.5007 32.4173 31.3 32.5L31 34H29ZM30 31C30.55 31 31.021 30.804 31.413 30.412C31.805 30.02 32.0007 29.5493 32 29C32 28.45 31.804 27.979 31.412 27.587C31.02 27.195 30.5493 26.9993 30 27C29.45 27 28.979 27.196 28.587 27.588C28.195 27.98 27.9993 28.4507 28 29C28 29.55 28.196 30.021 28.588 30.413C28.98 30.805 29.4507 31.0007 30 31ZM16 32C15.45 32 14.979 31.804 14.587 31.412C14.195 31.02 13.9993 30.5493 14 30V18C14 17.45 14.196 16.979 14.588 16.587C14.98 16.195 15.4507 15.9993 16 16H22L24 18H32C32.55 18 33.021 18.196 33.413 18.588C33.805 18.98 34.0007 19.4507 34 20V23.25C33.4167 22.8333 32.7833 22.5207 32.1 22.312C31.4167 22.1033 30.7167 21.9993 30 22C28.05 22 26.3957 22.6793 25.037 24.038C23.6783 25.3967 22.9993 27.0507 23 29C23 29.5333 23.0543 30.05 23.163 30.55C23.2717 31.05 23.4423 31.5333 23.675 32H16Z" fill="white"/>
<defs>
<linearGradient id="paint0_linear_16_2121" x1="0" y1="0" x2="51.7954" y2="4.52139" gradientUnits="userSpaceOnUse">
<stop stop-color="#F55757"/>
<stop offset="1" stop-color="#FFB18F"/>
</linearGradient>
</defs>
</svg>
