<svg width="20" height="17" viewBox="0 0 20 17" fill="none" xmlns="http://www.w3.org/2000/svg">
<path d="M13.9785 16.4583L13.7098 15.1145C13.5306 15.0399 13.3625 14.9613 13.2054 14.8789C13.0483 14.7965 12.888 14.6959 12.7244 14.577L11.4254 14.9801L10.5296 13.4572L11.5598 12.5614C11.5299 12.3822 11.515 12.1881 11.515 11.9791C11.515 11.7701 11.5299 11.576 11.5598 11.3968L10.5296 10.501L11.4254 8.97805L12.7244 9.38117C12.8886 9.26173 13.0492 9.16109 13.2063 9.07927C13.3634 8.99745 13.5312 8.91892 13.7098 8.84367L13.9785 7.49992H15.7702L16.0389 8.84367C16.2181 8.91832 16.3862 8.99686 16.5433 9.07927C16.7004 9.16169 16.8607 9.26232 17.0244 9.38117L18.3233 8.97805L19.2191 10.501L18.1889 11.3968C18.2188 11.576 18.2337 11.7701 18.2337 11.9791C18.2337 12.1881 18.2188 12.3822 18.1889 12.5614L19.2191 13.4572L18.3233 14.9801L17.0244 14.577C16.8601 14.6964 16.6998 14.7974 16.5433 14.8798C16.3868 14.9622 16.2187 15.0404 16.0389 15.1145L15.7702 16.4583H13.9785ZM14.8744 13.7708C15.3671 13.7708 15.789 13.5952 16.1402 13.244C16.4913 12.8928 16.6666 12.4712 16.666 11.9791C16.666 11.4864 16.4904 11.0644 16.1393 10.7133C15.7881 10.3621 15.3665 10.1868 14.8744 10.1874C14.3816 10.1874 13.9597 10.363 13.6085 10.7142C13.2574 11.0653 13.0821 11.487 13.0827 11.9791C13.0827 12.4718 13.2583 12.8937 13.6094 13.2449C13.9606 13.5961 14.3822 13.7714 14.8744 13.7708ZM2.33268 14.6666C1.83998 14.6666 1.41804 14.491 1.06687 14.1398C0.715705 13.7887 0.54042 13.367 0.541017 12.8749V2.12492C0.541017 1.63221 0.716601 1.21027 1.06777 0.859108C1.41893 0.507941 1.84057 0.332656 2.33268 0.333253H7.70768L9.49935 2.12492H16.666C17.1587 2.12492 17.5807 2.3005 17.9318 2.65167C18.283 3.00284 18.4583 3.42448 18.4577 3.91659V6.82805C17.9351 6.45478 17.3678 6.17468 16.7556 5.98775C16.1434 5.80082 15.5164 5.70766 14.8744 5.70825C13.1275 5.70825 11.6455 6.31682 10.4283 7.53396C9.21119 8.7511 8.60292 10.2328 8.60352 11.9791C8.60352 12.4569 8.65219 12.9197 8.74954 13.3676C8.84689 13.8155 8.99977 14.2485 9.20821 14.6666H2.33268Z" fill="white"/>
</svg>
