<svg width="60" height="60" viewBox="0 0 60 60" fill="none" xmlns="http://www.w3.org/2000/svg">
<path d="M30 0C13.47 0 0 13.47 0 30C0 46.53 13.47 60 30 60C46.53 60 60 46.53 60 30C60 13.47 46.53 0 30 0ZM44.34 23.1L27.33 40.11C26.9081 40.5314 26.3363 40.768 25.74 40.768C25.1437 40.768 24.5719 40.5314 24.15 40.11L15.66 31.62C15.2416 31.1966 15.0069 30.6253 15.0069 30.03C15.0069 29.4347 15.2416 28.8634 15.66 28.44C16.53 27.57 17.97 27.57 18.84 28.44L25.74 35.34L41.16 19.92C42.03 19.05 43.47 19.05 44.34 19.92C45.21 20.79 45.21 22.2 44.34 23.1Z" fill="white"/>
</svg>
