<svg width="48" height="48" viewBox="0 0 48 48" fill="none" xmlns="http://www.w3.org/2000/svg">
<rect width="48" height="48" rx="20" fill="url(#paint0_linear_16_2137)"/>
<path d="M30.5704 30.3458C30.3336 30.5826 30.0374 30.701 29.6818 30.701C29.3261 30.701 29.0196 30.5719 28.7621 30.3135C28.5038 30.0552 28.3746 29.7487 28.3746 29.3939C28.3746 29.0391 28.5038 28.7321 28.7621 28.4729L33.7673 23.4677L28.7298 18.4302C28.493 18.1934 28.3798 17.8976 28.3901 17.5428C28.4004 17.1881 28.5244 16.8918 28.7621 16.6542C28.9989 16.4174 29.3003 16.299 29.6663 16.299C30.0322 16.299 30.3336 16.4174 30.5704 16.6542L36.5121 22.5958C36.7704 22.8542 36.8996 23.1556 36.8996 23.5C36.8996 23.8444 36.7704 24.1458 36.5121 24.4042L30.5704 30.3458ZM18.4288 30.3458L12.4871 24.4042C12.2288 24.1458 12.0996 23.8444 12.0996 23.5C12.0996 23.1556 12.2288 22.8542 12.4871 22.5958L18.4288 16.6542C18.6656 16.4174 18.967 16.2938 19.3329 16.2835C19.6989 16.2731 20.0111 16.3967 20.2694 16.6542C20.5277 16.9125 20.6569 17.2195 20.6569 17.5751C20.6569 17.9308 20.5277 18.2373 20.2694 18.4948L15.2319 23.5323L20.2694 28.5698C20.5062 28.8066 20.6194 29.1028 20.6091 29.4585C20.5988 29.8141 20.4748 30.1099 20.2371 30.3458C20.0003 30.5826 19.6989 30.701 19.3329 30.701C18.967 30.701 18.6656 30.5826 18.4288 30.3458Z" fill="white"/>
<defs>
<linearGradient id="paint0_linear_16_2137" x1="0" y1="0" x2="51.7954" y2="4.52139" gradientUnits="userSpaceOnUse">
<stop stop-color="#FFE34F"/>
<stop offset="1" stop-color="#FFCA8C"/>
</linearGradient>
</defs>
</svg>
