<svg width="25" height="15" viewBox="0 0 25 15" fill="none" xmlns="http://www.w3.org/2000/svg">
<path d="M18.5704 14.3459C18.3336 14.5827 18.0374 14.7011 17.6818 14.7011C17.3261 14.7011 17.0196 14.572 16.7621 14.3136C16.5038 14.0553 16.3746 13.7488 16.3746 13.394C16.3746 13.0392 16.5038 12.7322 16.7621 12.473L21.7673 7.46781L16.7298 2.43031C16.493 2.1935 16.3798 1.89771 16.3901 1.54293C16.4004 1.18815 16.5244 0.891932 16.7621 0.654265C16.9989 0.417459 17.3003 0.299057 17.6663 0.299057C18.0322 0.299057 18.3336 0.417459 18.5704 0.654265L24.5121 6.59593C24.7704 6.85427 24.8996 7.15565 24.8996 7.5001C24.8996 7.84454 24.7704 8.14593 24.5121 8.40427L18.5704 14.3459ZM6.42878 14.3459L0.487109 8.40427C0.228776 8.14593 0.0996094 7.84454 0.0996094 7.5001C0.0996094 7.15565 0.228776 6.85427 0.487109 6.59593L6.42878 0.654265C6.66558 0.417459 6.96697 0.29389 7.33294 0.283557C7.69891 0.273224 8.01107 0.396793 8.2694 0.654265C8.52773 0.912598 8.6569 1.21958 8.6569 1.57522C8.6569 1.93086 8.52773 2.23742 8.2694 2.49489L3.2319 7.53239L8.2694 12.5699C8.50621 12.8067 8.61944 13.1029 8.60911 13.4586C8.59878 13.8142 8.47478 14.11 8.23711 14.3459C8.0003 14.5827 7.69891 14.7011 7.33294 14.7011C6.96697 14.7011 6.66558 14.5827 6.42878 14.3459Z" fill="white"/>
</svg>
