<svg width="43" height="43" viewBox="0 0 43 43" fill="none" xmlns="http://www.w3.org/2000/svg">
<rect width="43" height="43" rx="10" fill="#32CCBC"/>
<path d="M27.5709 28.3459C27.3341 28.5827 27.0379 28.7011 26.6823 28.7011C26.3266 28.7011 26.0201 28.572 25.7626 28.3136C25.5043 28.0553 25.3751 27.7488 25.3751 27.394C25.3751 27.0392 25.5043 26.7322 25.7626 26.473L30.7678 21.4678L25.7303 16.4303C25.4935 16.1935 25.3803 15.8977 25.3906 15.5429C25.4009 15.1882 25.5249 14.8919 25.7626 14.6543C25.9994 14.4175 26.3008 14.2991 26.6668 14.2991C27.0327 14.2991 27.3341 14.4175 27.5709 14.6543L33.5126 20.5959C33.7709 20.8543 33.9001 21.1557 33.9001 21.5001C33.9001 21.8445 33.7709 22.1459 33.5126 22.4043L27.5709 28.3459ZM15.4293 28.3459L9.4876 22.4043C9.22926 22.1459 9.1001 21.8445 9.1001 21.5001C9.1001 21.1557 9.22926 20.8543 9.4876 20.5959L15.4293 14.6543C15.6661 14.4175 15.9675 14.2939 16.3334 14.2836C16.6994 14.2732 17.0116 14.3968 17.2699 14.6543C17.5282 14.9126 17.6574 15.2196 17.6574 15.5752C17.6574 15.9309 17.5282 16.2374 17.2699 16.4949L12.2324 21.5324L17.2699 26.5699C17.5067 26.8067 17.6199 27.1029 17.6096 27.4586C17.5993 27.8142 17.4753 28.11 17.2376 28.3459C17.0008 28.5827 16.6994 28.7011 16.3334 28.7011C15.9675 28.7011 15.6661 28.5827 15.4293 28.3459Z" fill="white"/>
</svg>
