<svg width="51" height="42" viewBox="0 0 51 42" fill="none" xmlns="http://www.w3.org/2000/svg">
<g clip-path="url(#clip0_16_2396)">
<path d="M50.0595 5.09159C48.231 5.9192 46.2662 6.47853 44.204 6.73017C46.3091 5.44229 47.9254 3.40288 48.6866 0.972951C46.6854 2.18511 44.4959 3.03916 42.2128 3.49818C40.353 1.47582 37.7036 0.211914 34.7712 0.211914C29.1408 0.211914 24.5759 4.87126 24.5759 10.618C24.5759 11.4337 24.6661 12.2278 24.8399 12.9897C16.3669 12.5555 8.85487 8.41273 3.82643 2.11679C2.94905 3.65372 2.44631 5.44149 2.44631 7.34835C2.44631 10.9588 4.24629 14.1438 6.9817 16.01C5.36272 15.9583 3.77936 15.5119 2.36381 14.7083C2.36323 14.7519 2.36323 14.7955 2.36323 14.8392C2.36323 19.8812 5.8774 24.0872 10.5411 25.0432C9.03983 25.46 7.46509 25.521 5.93719 25.2215C7.23443 29.3558 10.9996 32.3643 15.4606 32.4485C11.9715 35.2394 7.57548 36.9032 2.7992 36.9032C1.97617 36.9032 1.16479 36.8538 0.367188 36.7577C4.8789 39.7104 10.2377 41.4331 15.995 41.4331C34.7475 41.4331 45.0018 25.5762 45.0018 11.8248C45.0018 11.3735 44.9921 10.9247 44.9722 10.4785C46.9682 9.00572 48.6909 7.18155 50.0595 5.09159Z" fill="#55ACEE"/>
</g>
<defs>
<clipPath id="clip0_16_2396">
<rect width="49.6923" height="41.4103" fill="white" transform="translate(0.367188 0.0488281)"/>
</clipPath>
</defs>
</svg>
