<svg width="119" height="21" viewBox="0 0 119 21" fill="none" xmlns="http://www.w3.org/2000/svg">
<path d="M4.96 14.8439L0 3.64392H1.28L5.92 14.1879H5.216L9.888 3.64392H11.088L6.128 14.8439H4.96Z" fill="url(#paint0_linear_16_2344)"/>
<path d="M11.7866 14.8439V6.44392H12.9226V14.8439H11.7866ZM12.3626 4.58792C12.128 4.58792 11.9306 4.50792 11.7706 4.34792C11.6106 4.18792 11.5306 3.99592 11.5306 3.77192C11.5306 3.54792 11.6106 3.36126 11.7706 3.21192C11.9306 3.05192 12.128 2.97192 12.3626 2.97192C12.5973 2.97192 12.7946 3.04659 12.9546 3.19592C13.1146 3.34526 13.1946 3.53192 13.1946 3.75592C13.1946 3.99059 13.1146 4.18792 12.9546 4.34792C12.8053 4.50792 12.608 4.58792 12.3626 4.58792Z" fill="url(#paint1_linear_16_2344)"/>
<path d="M19.0115 14.9239C18.1368 14.9239 17.3688 14.7426 16.7075 14.3799C16.0462 14.0066 15.5288 13.4999 15.1555 12.8599C14.7822 12.2093 14.5955 11.4679 14.5955 10.6359C14.5955 9.80392 14.7715 9.06792 15.1235 8.42792C15.4862 7.78792 15.9768 7.28659 16.5955 6.92392C17.2248 6.55059 17.9288 6.36392 18.7075 6.36392C19.4968 6.36392 20.1955 6.54526 20.8035 6.90792C21.4222 7.25992 21.9075 7.76126 22.2595 8.41192C22.6115 9.05192 22.7875 9.79326 22.7875 10.6359C22.7875 10.6893 22.7822 10.7479 22.7715 10.8119C22.7715 10.8653 22.7715 10.9239 22.7715 10.9879H15.4595V10.1399H22.1635L21.7155 10.4759C21.7155 9.86792 21.5822 9.32926 21.3155 8.85992C21.0595 8.37992 20.7075 8.00659 20.2595 7.73992C19.8115 7.47326 19.2942 7.33992 18.7075 7.33992C18.1315 7.33992 17.6142 7.47326 17.1555 7.73992C16.6968 8.00659 16.3395 8.37992 16.0835 8.85992C15.8275 9.33992 15.6995 9.88926 15.6995 10.5079V10.6839C15.6995 11.3239 15.8382 11.8893 16.1155 12.3799C16.4035 12.8599 16.7982 13.2386 17.2995 13.5159C17.8115 13.7826 18.3928 13.9159 19.0435 13.9159C19.5555 13.9159 20.0302 13.8253 20.4675 13.6439C20.9155 13.4626 21.2995 13.1853 21.6195 12.8119L22.2595 13.5479C21.8862 13.9959 21.4168 14.3373 20.8515 14.5719C20.2968 14.8066 19.6835 14.9239 19.0115 14.9239Z" fill="url(#paint2_linear_16_2344)"/>
<path d="M26.0155 14.8439L22.8475 6.44392H23.9355L26.8155 14.2359H26.3195L29.2795 6.44392H30.2555L33.1835 14.2359H32.6875L35.6155 6.44392H36.6555L33.4715 14.8439H32.3995L29.5835 7.51592H29.9195L27.0875 14.8439H26.0155Z" fill="url(#paint3_linear_16_2344)"/>
<path d="M41.5135 14.8439V3.64392H45.7055C46.6548 3.64392 47.4708 3.79859 48.1535 4.10792C48.8362 4.40659 49.3588 4.84392 49.7215 5.41992C50.0948 5.98526 50.2815 6.67326 50.2815 7.48392C50.2815 8.27326 50.0948 8.95592 49.7215 9.53192C49.3588 10.0973 48.8362 10.5346 48.1535 10.8439C47.4708 11.1533 46.6548 11.3079 45.7055 11.3079H42.1695L42.6975 10.7479V14.8439H41.5135ZM42.6975 10.8439L42.1695 10.2679H45.6735C46.7935 10.2679 47.6415 10.0279 48.2175 9.54792C48.8042 9.05726 49.0975 8.36926 49.0975 7.48392C49.0975 6.58792 48.8042 5.89459 48.2175 5.40392C47.6415 4.91326 46.7935 4.66792 45.6735 4.66792H42.1695L42.6975 4.10792V10.8439Z" fill="url(#paint4_linear_16_2344)"/>
<path d="M51.7585 14.8439V6.44392H52.8465V8.73192L52.7345 8.33192C52.9692 7.69192 53.3638 7.20659 53.9185 6.87592C54.4732 6.53459 55.1612 6.36392 55.9825 6.36392V7.46792C55.9398 7.46792 55.8972 7.46792 55.8545 7.46792C55.8118 7.45726 55.7692 7.45192 55.7265 7.45192C54.8412 7.45192 54.1478 7.72392 53.6465 8.26792C53.1452 8.80126 52.8945 9.56392 52.8945 10.5559V14.8439H51.7585Z" fill="url(#paint5_linear_16_2344)"/>
<path d="M60.7612 14.9239C59.9506 14.9239 59.2199 14.7426 58.5693 14.3799C57.9293 14.0066 57.4226 13.4999 57.0493 12.8599C56.6759 12.2093 56.4893 11.4679 56.4893 10.6359C56.4893 9.79326 56.6759 9.05192 57.0493 8.41192C57.4226 7.77192 57.9293 7.27059 58.5693 6.90792C59.2093 6.54526 59.9399 6.36392 60.7612 6.36392C61.5933 6.36392 62.3293 6.54526 62.9692 6.90792C63.6199 7.27059 64.1266 7.77192 64.4893 8.41192C64.8626 9.05192 65.0492 9.79326 65.0492 10.6359C65.0492 11.4679 64.8626 12.2093 64.4893 12.8599C64.1266 13.4999 63.6199 14.0066 62.9692 14.3799C62.3186 14.7426 61.5826 14.9239 60.7612 14.9239ZM60.7612 13.9159C61.3692 13.9159 61.9079 13.7826 62.3773 13.5159C62.8466 13.2386 63.2146 12.8546 63.4813 12.3639C63.7586 11.8626 63.8973 11.2866 63.8973 10.6359C63.8973 9.97459 63.7586 9.39859 63.4813 8.90792C63.2146 8.41726 62.8466 8.03859 62.3773 7.77192C61.9079 7.49459 61.3746 7.35592 60.7773 7.35592C60.1799 7.35592 59.6466 7.49459 59.1772 7.77192C58.7079 8.03859 58.3346 8.41726 58.0573 8.90792C57.7799 9.39859 57.6413 9.97459 57.6413 10.6359C57.6413 11.2866 57.7799 11.8626 58.0573 12.3639C58.3346 12.8546 58.7079 13.2386 59.1772 13.5159C59.6466 13.7826 60.1746 13.9159 60.7612 13.9159Z" fill="url(#paint6_linear_16_2344)"/>
<path d="M65.4805 18.0279C65.1392 18.0279 64.8138 17.9799 64.5045 17.8839C64.1845 17.7986 63.9178 17.6653 63.7045 17.4839L64.1045 16.6199C64.4458 16.9079 64.8832 17.0519 65.4165 17.0519C65.8645 17.0519 66.2058 16.9186 66.4405 16.6519C66.6858 16.3853 66.8085 15.9906 66.8085 15.4679V6.44392H67.9445V15.4679C67.9445 16.2466 67.7312 16.8653 67.3045 17.3239C66.8885 17.7933 66.2805 18.0279 65.4805 18.0279ZM67.3845 4.58792C67.1498 4.58792 66.9525 4.50792 66.7925 4.34792C66.6325 4.18792 66.5525 3.99592 66.5525 3.77192C66.5525 3.54792 66.6325 3.36126 66.7925 3.21192C66.9525 3.05192 67.1498 2.97192 67.3845 2.97192C67.6192 2.97192 67.8165 3.04659 67.9765 3.19592C68.1365 3.34526 68.2165 3.53192 68.2165 3.75592C68.2165 3.99059 68.1365 4.18792 67.9765 4.34792C67.8272 4.50792 67.6298 4.58792 67.3845 4.58792Z" fill="url(#paint7_linear_16_2344)"/>
<path d="M74.0471 14.9239C73.1725 14.9239 72.4045 14.7426 71.7431 14.3799C71.0818 14.0066 70.5645 13.4999 70.1911 12.8599C69.8178 12.2093 69.6311 11.4679 69.6311 10.6359C69.6311 9.80392 69.8071 9.06792 70.1591 8.42792C70.5218 7.78792 71.0125 7.28659 71.6311 6.92392C72.2605 6.55059 72.9645 6.36392 73.7431 6.36392C74.5325 6.36392 75.2311 6.54526 75.8391 6.90792C76.4578 7.25992 76.9431 7.76126 77.2951 8.41192C77.6471 9.05192 77.8231 9.79326 77.8231 10.6359C77.8231 10.6893 77.8178 10.7479 77.8071 10.8119C77.8071 10.8653 77.8071 10.9239 77.8071 10.9879H70.4951V10.1399H77.1991L76.7511 10.4759C76.7511 9.86792 76.6178 9.32926 76.3511 8.85992C76.0951 8.37992 75.7431 8.00659 75.2951 7.73992C74.8471 7.47326 74.3298 7.33992 73.7431 7.33992C73.1671 7.33992 72.6498 7.47326 72.1911 7.73992C71.7325 8.00659 71.3751 8.37992 71.1191 8.85992C70.8631 9.33992 70.7351 9.88926 70.7351 10.5079V10.6839C70.7351 11.3239 70.8738 11.8893 71.1511 12.3799C71.4391 12.8599 71.8338 13.2386 72.3351 13.5159C72.8471 13.7826 73.4285 13.9159 74.0791 13.9159C74.5911 13.9159 75.0658 13.8253 75.5031 13.6439C75.9511 13.4626 76.3351 13.1853 76.6551 12.8119L77.2951 13.5479C76.9218 13.9959 76.4525 14.3373 75.8871 14.5719C75.3325 14.8066 74.7191 14.9239 74.0471 14.9239Z" fill="url(#paint8_linear_16_2344)"/>
<path d="M82.9834 14.9239C82.1514 14.9239 81.4047 14.7426 80.7434 14.3799C80.0927 14.0066 79.5807 13.4999 79.2074 12.8599C78.834 12.2093 78.6474 11.4679 78.6474 10.6359C78.6474 9.79326 78.834 9.05192 79.2074 8.41192C79.5807 7.77192 80.0927 7.27059 80.7434 6.90792C81.4047 6.54526 82.1514 6.36392 82.9834 6.36392C83.698 6.36392 84.3434 6.50259 84.9194 6.77992C85.4954 7.05726 85.9487 7.47326 86.2794 8.02792L85.4314 8.60392C85.1434 8.17726 84.786 7.86259 84.3594 7.65992C83.9327 7.45726 83.4687 7.35592 82.9674 7.35592C82.37 7.35592 81.8314 7.49459 81.3514 7.77192C80.8714 8.03859 80.4927 8.41726 80.2154 8.90792C79.938 9.39859 79.7994 9.97459 79.7994 10.6359C79.7994 11.2973 79.938 11.8733 80.2154 12.3639C80.4927 12.8546 80.8714 13.2386 81.3514 13.5159C81.8314 13.7826 82.37 13.9159 82.9674 13.9159C83.4687 13.9159 83.9327 13.8146 84.3594 13.6119C84.786 13.4093 85.1434 13.0999 85.4314 12.6839L86.2794 13.2599C85.9487 13.8039 85.4954 14.2199 84.9194 14.5079C84.3434 14.7853 83.698 14.9239 82.9834 14.9239Z" fill="url(#paint9_linear_16_2344)"/>
<path d="M90.6208 14.9239C89.8314 14.9239 89.2234 14.7106 88.7968 14.2839C88.3701 13.8573 88.1567 13.2546 88.1567 12.4759V4.58792H89.2927V12.4119C89.2927 12.9026 89.4154 13.2813 89.6608 13.5479C89.9167 13.8146 90.2794 13.9479 90.7487 13.9479C91.2501 13.9479 91.6661 13.8039 91.9967 13.5159L92.3968 14.3319C92.1728 14.5346 91.9007 14.6839 91.5807 14.7799C91.2714 14.8759 90.9514 14.9239 90.6208 14.9239ZM86.6527 7.38792V6.44392H91.8528V7.38792H86.6527Z" fill="url(#paint10_linear_16_2344)"/>
<path d="M108.509 15.6844C108.305 15.8011 108.123 15.7827 107.962 15.6293C107.802 15.4759 107.78 15.2974 107.896 15.0938L110.018 11.3751H100.021C99.7736 11.3751 99.5656 11.2911 99.3976 11.1231C99.2296 10.9551 99.1459 10.7474 99.1465 10.5001C99.1465 10.2521 99.2305 10.0442 99.3985 9.87619C99.5665 9.70819 99.7742 9.62448 100.021 9.62506H110.018L107.896 5.90631C107.78 5.70215 107.802 5.52336 107.962 5.36994C108.123 5.21652 108.305 5.19844 108.509 5.31569L115.487 9.75631C115.764 9.93131 115.903 10.1792 115.903 10.5001C115.903 10.8209 115.764 11.0688 115.487 11.2438L108.509 15.6844Z" fill="#32CCBC"/>
<defs>
<linearGradient id="paint0_linear_16_2344" x1="-6.97135e-07" y1="15.2463" x2="120.454" y2="18.5585" gradientUnits="userSpaceOnUse">
<stop stop-color="#3A6B66"/>
<stop offset="0.300628" stop-color="#32CCBC"/>
<stop offset="0.56044" stop-color="#32CCBC"/>
<stop offset="0.697097" stop-color="#6DE7DA"/>
</linearGradient>
<linearGradient id="paint1_linear_16_2344" x1="-6.97135e-07" y1="15.2463" x2="120.454" y2="18.5585" gradientUnits="userSpaceOnUse">
<stop stop-color="#3A6B66"/>
<stop offset="0.300628" stop-color="#32CCBC"/>
<stop offset="0.56044" stop-color="#32CCBC"/>
<stop offset="0.697097" stop-color="#6DE7DA"/>
</linearGradient>
<linearGradient id="paint2_linear_16_2344" x1="-6.97135e-07" y1="15.2463" x2="120.454" y2="18.5585" gradientUnits="userSpaceOnUse">
<stop stop-color="#3A6B66"/>
<stop offset="0.300628" stop-color="#32CCBC"/>
<stop offset="0.56044" stop-color="#32CCBC"/>
<stop offset="0.697097" stop-color="#6DE7DA"/>
</linearGradient>
<linearGradient id="paint3_linear_16_2344" x1="-6.97135e-07" y1="15.2463" x2="120.454" y2="18.5585" gradientUnits="userSpaceOnUse">
<stop stop-color="#3A6B66"/>
<stop offset="0.300628" stop-color="#32CCBC"/>
<stop offset="0.56044" stop-color="#32CCBC"/>
<stop offset="0.697097" stop-color="#6DE7DA"/>
</linearGradient>
<linearGradient id="paint4_linear_16_2344" x1="-6.97135e-07" y1="15.2463" x2="120.454" y2="18.5585" gradientUnits="userSpaceOnUse">
<stop stop-color="#3A6B66"/>
<stop offset="0.300628" stop-color="#32CCBC"/>
<stop offset="0.56044" stop-color="#32CCBC"/>
<stop offset="0.697097" stop-color="#6DE7DA"/>
</linearGradient>
<linearGradient id="paint5_linear_16_2344" x1="-6.97135e-07" y1="15.2463" x2="120.454" y2="18.5585" gradientUnits="userSpaceOnUse">
<stop stop-color="#3A6B66"/>
<stop offset="0.300628" stop-color="#32CCBC"/>
<stop offset="0.56044" stop-color="#32CCBC"/>
<stop offset="0.697097" stop-color="#6DE7DA"/>
</linearGradient>
<linearGradient id="paint6_linear_16_2344" x1="-6.97135e-07" y1="15.2463" x2="120.454" y2="18.5585" gradientUnits="userSpaceOnUse">
<stop stop-color="#3A6B66"/>
<stop offset="0.300628" stop-color="#32CCBC"/>
<stop offset="0.56044" stop-color="#32CCBC"/>
<stop offset="0.697097" stop-color="#6DE7DA"/>
</linearGradient>
<linearGradient id="paint7_linear_16_2344" x1="-6.97135e-07" y1="15.2463" x2="120.454" y2="18.5585" gradientUnits="userSpaceOnUse">
<stop stop-color="#3A6B66"/>
<stop offset="0.300628" stop-color="#32CCBC"/>
<stop offset="0.56044" stop-color="#32CCBC"/>
<stop offset="0.697097" stop-color="#6DE7DA"/>
</linearGradient>
<linearGradient id="paint8_linear_16_2344" x1="-6.97135e-07" y1="15.2463" x2="120.454" y2="18.5585" gradientUnits="userSpaceOnUse">
<stop stop-color="#3A6B66"/>
<stop offset="0.300628" stop-color="#32CCBC"/>
<stop offset="0.56044" stop-color="#32CCBC"/>
<stop offset="0.697097" stop-color="#6DE7DA"/>
</linearGradient>
<linearGradient id="paint9_linear_16_2344" x1="-6.97135e-07" y1="15.2463" x2="120.454" y2="18.5585" gradientUnits="userSpaceOnUse">
<stop stop-color="#3A6B66"/>
<stop offset="0.300628" stop-color="#32CCBC"/>
<stop offset="0.56044" stop-color="#32CCBC"/>
<stop offset="0.697097" stop-color="#6DE7DA"/>
</linearGradient>
<linearGradient id="paint10_linear_16_2344" x1="-6.97135e-07" y1="15.2463" x2="120.454" y2="18.5585" gradientUnits="userSpaceOnUse">
<stop stop-color="#3A6B66"/>
<stop offset="0.300628" stop-color="#32CCBC"/>
<stop offset="0.56044" stop-color="#32CCBC"/>
<stop offset="0.697097" stop-color="#6DE7DA"/>
</linearGradient>
</defs>
</svg>
