<svg width="73" height="73" viewBox="0 0 73 73" fill="none" xmlns="http://www.w3.org/2000/svg">
<g clip-path="url(#clip0_16_2411)">
<path d="M54.5736 14.367C54.5736 15.0213 54.5969 15.5937 54.6437 16.0844C54.6904 16.575 54.7955 17.0657 54.9591 17.5564C55.1227 18.047 55.2628 18.4442 55.3797 18.748C55.4965 19.0517 55.7301 19.4489 56.0806 19.9396C56.4311 20.4303 56.6764 20.7808 56.8166 20.9911C56.9568 21.2013 57.2956 21.6336 57.833 22.2878C58.3704 22.942 58.7559 23.386 58.9896 23.6196C60.0177 24.9281 60.6836 25.9912 60.9873 26.809C61.2911 27.6268 61.3261 28.573 61.0925 29.6478C60.7653 31.2367 60.3915 32.6386 59.9709 33.8536L54.5736 48.0129L48.7556 34.8349C48.3351 33.8068 47.4706 31.0614 46.1621 26.5987C44.8537 22.1359 44.1994 19.741 44.1994 19.4139C44.1994 18.7597 44.4331 18.269 44.9004 17.9419C45.9285 17.1007 46.9098 16.6568 47.8444 16.6101V14.367H27.6569V16.6101C28.0775 16.6568 28.4046 16.797 28.6382 17.0307C28.8719 17.2643 29.0939 17.533 29.3041 17.8368C29.5144 18.1405 29.6897 18.3625 29.8299 18.5027C30.4841 19.0634 31.2551 20.4186 32.143 22.5682L34.3861 30.0684L29.9 48.0129L20.6474 23.5495C19.7127 21.1663 19.2454 19.7176 19.2454 19.2036C19.2454 18.6896 19.5025 18.2456 20.0165 17.8718C21.138 17.0307 22.1895 16.6101 23.1708 16.6101V14.367H8.66103C11.9789 10.1613 16.0795 6.86681 20.9628 4.48356C25.8461 2.10031 31.0682 0.908691 36.6291 0.908691C41.0685 0.908691 45.321 1.69142 49.3865 3.25689C53.452 4.82236 57.097 7.03036 60.3214 9.88091C58.4989 9.88091 57.0853 10.2548 56.0806 11.0024C55.0759 11.7501 54.5736 12.8717 54.5736 14.367ZM5.36654 19.2036C6.5348 20.5588 7.93671 23.4327 9.57227 27.8254L23.1708 63.7143H27.6569L36.6291 36.7976L47.8444 63.7143H52.3305L62.9149 36.377C63.1953 35.5826 63.7561 34.3326 64.5972 32.6269C65.4384 30.9212 66.151 29.2857 66.7351 27.7202C67.3193 26.1548 67.6814 24.7412 67.8216 23.4794C67.9618 21.6102 68.0319 20.255 68.0319 19.4139C71.0227 24.8346 72.518 30.6292 72.518 36.7976C72.518 43.2931 70.9175 49.2979 67.7165 54.8121C64.5155 60.3263 60.1578 64.6839 54.6437 67.8849C49.1295 71.086 43.1246 72.6865 36.6291 72.6865C31.7692 72.6865 27.1195 71.7402 22.6801 69.8476C18.2407 67.955 14.4205 65.4082 11.2195 62.2072C8.01848 59.0062 5.47168 55.186 3.5791 50.7466C1.68652 46.3072 0.740234 41.6575 0.740234 36.7976C0.740234 30.5357 2.28234 24.6711 5.36654 19.2036Z" fill="#0584AD"/>
</g>
<defs>
<clipPath id="clip0_16_2411">
<rect width="71.7778" height="71.7778" fill="white" transform="translate(0.740234 0.908691)"/>
</clipPath>
</defs>
</svg>
